<svg preserveAspectRatio="none" width="100%" height="100%" overflow="visible" style="display: block;" viewBox="0 0 199.92 102" fill="none" xmlns="http://www.w3.org/2000/svg">
<g id="line-white 1">
<path id="Vector" d="M95.2364 68.3401H93.8655L93.1433 66.3083H89.9487L89.2388 68.3401H87.8679L90.8789 60.0904H92.2253L95.2364 68.3401ZM92.1274 63.4196L91.5644 61.4612H91.5399L90.9768 63.4196L90.3648 65.17H92.7394L92.1274 63.4196ZM100.012 64.2764C99.8572 64.0235 99.6532 63.8113 99.4002 63.64C99.1554 63.4686 98.8821 63.3829 98.5801 63.3829C98.1395 63.3829 97.7764 63.5461 97.4908 63.8725C97.2052 64.1908 97.0624 64.6681 97.0624 65.3046C97.0624 65.6636 97.0991 65.9656 97.1725 66.2104C97.2541 66.4552 97.3602 66.6551 97.4908 66.8101C97.6295 66.9652 97.7845 67.0794 97.9559 67.1528C98.1354 67.2181 98.3231 67.2508 98.5189 67.2508C98.9596 67.2508 99.3186 67.0876 99.596 66.7612C99.8735 66.4348 100.012 65.9819 100.012 65.4025V64.2764ZM100.024 67.3242C99.8694 67.5853 99.6409 67.822 99.339 68.0341C99.0371 68.2381 98.674 68.3401 98.2496 68.3401C97.8906 68.3401 97.5601 68.2708 97.2582 68.132C96.9563 67.9933 96.6952 67.7975 96.4748 67.5445C96.2545 67.2834 96.0791 66.9652 95.9485 66.5898C95.8261 66.2144 95.7649 65.7901 95.7649 65.3168C95.7649 64.917 95.818 64.5335 95.924 64.1663C96.0383 63.7991 96.2015 63.4768 96.4137 63.1993C96.6258 62.9219 96.8869 62.7016 97.197 62.5384C97.5071 62.3752 97.8661 62.2936 98.2741 62.2936C98.4944 62.2936 98.6944 62.3221 98.8739 62.3792C99.0534 62.4364 99.2125 62.5139 99.3512 62.6118C99.4981 62.7016 99.6246 62.8036 99.7307 62.9178C99.8449 63.032 99.9388 63.1463 100.012 63.2605L100.184 62.4282H101.31V67.8505C101.31 68.3891 101.236 68.846 101.089 69.2214C100.951 69.5968 100.751 69.9028 100.49 70.1394C100.237 70.376 99.9347 70.5474 99.5838 70.6535C99.2329 70.7596 98.8535 70.8126 98.4455 70.8126C97.9967 70.8126 97.5683 70.7555 97.1603 70.6412C96.7605 70.527 96.434 70.3883 96.1811 70.2251L96.5116 69.2092C96.7727 69.3724 97.0583 69.4948 97.3684 69.5764C97.6784 69.658 97.9885 69.6988 98.2986 69.6988C98.5516 69.6988 98.78 69.6702 98.984 69.6131C99.1962 69.556 99.3798 69.458 99.5348 69.3193C99.6899 69.1888 99.8082 69.0052 99.8898 68.7685C99.9796 68.54 100.024 68.2463 100.024 67.8872V67.3242ZM103.947 65.8799C104.021 66.4184 104.212 66.8183 104.522 67.0794C104.841 67.3324 105.245 67.4588 105.734 67.4588C105.995 67.4588 106.256 67.4303 106.518 67.3732C106.779 67.316 107.028 67.2304 107.264 67.1161L107.558 68.0464C107.028 68.332 106.375 68.4748 105.6 68.4748C105.11 68.4748 104.682 68.4054 104.314 68.2667C103.947 68.1198 103.641 67.9117 103.396 67.6424C103.152 67.3732 102.968 67.0468 102.846 66.6632C102.723 66.2797 102.662 65.8513 102.662 65.378C102.662 64.9537 102.715 64.5539 102.821 64.1785C102.927 63.8032 103.09 63.4768 103.311 63.1993C103.539 62.9137 103.829 62.6934 104.18 62.5384C104.531 62.3752 104.951 62.2936 105.44 62.2936C105.84 62.2936 106.191 62.3548 106.493 62.4772C106.803 62.5996 107.06 62.7709 107.264 62.9912C107.476 63.2116 107.631 63.4768 107.729 63.7868C107.835 64.0969 107.888 64.4356 107.888 64.8028C107.888 64.9986 107.872 65.1904 107.839 65.378C107.815 65.5657 107.782 65.733 107.742 65.8799H103.947ZM105.453 63.2605C104.963 63.2605 104.592 63.4237 104.339 63.7501C104.094 64.0765 103.951 64.509 103.91 65.0476H106.677V64.8272C106.677 64.3295 106.579 63.946 106.383 63.6767C106.195 63.3992 105.885 63.2605 105.453 63.2605ZM110.506 68.3401H109.209V62.4282H110.335L110.506 63.2605C110.588 63.1544 110.694 63.0443 110.825 62.93C110.955 62.8158 111.106 62.7138 111.277 62.624C111.449 62.5261 111.637 62.4486 111.841 62.3915C112.045 62.3262 112.265 62.2936 112.501 62.2936C113.113 62.2936 113.595 62.5016 113.946 62.9178C114.297 63.3258 114.472 63.9011 114.472 64.6436V68.3401H113.175V64.6681C113.175 64.2601 113.089 63.946 112.918 63.7256C112.754 63.4972 112.501 63.3829 112.159 63.3829C111.816 63.3829 111.502 63.4686 111.216 63.64C110.931 63.8113 110.694 64.0194 110.506 64.2642V68.3401ZM118.785 67.4588C119.046 67.4588 119.307 67.4303 119.568 67.3732C119.829 67.3079 120.078 67.21 120.315 67.0794L120.609 68.0096C120.062 68.3197 119.43 68.4748 118.711 68.4748C118.222 68.4748 117.793 68.3972 117.426 68.2422C117.059 68.079 116.753 67.8587 116.508 67.5812C116.263 67.2956 116.08 66.9652 115.957 66.5898C115.835 66.2144 115.774 65.8105 115.774 65.378C115.774 64.9537 115.835 64.5539 115.957 64.1785C116.08 63.8032 116.263 63.4768 116.508 63.1993C116.753 62.9137 117.059 62.6934 117.426 62.5384C117.802 62.3752 118.242 62.2936 118.748 62.2936C119.075 62.2936 119.389 62.3303 119.691 62.4037C119.993 62.469 120.274 62.5751 120.535 62.722L120.254 63.6522C119.813 63.4237 119.328 63.3095 118.797 63.3095C118.193 63.3095 117.753 63.5012 117.475 63.8848C117.206 64.2683 117.071 64.766 117.071 65.378C117.071 65.9982 117.21 66.5 117.487 66.8836C117.765 67.2671 118.197 67.4588 118.785 67.4588ZM125.687 67.3242C125.614 67.4384 125.516 67.5568 125.393 67.6792C125.279 67.8016 125.14 67.9117 124.977 68.0096C124.822 68.1076 124.647 68.1892 124.451 68.2544C124.255 68.3116 124.039 68.3401 123.802 68.3401C123.19 68.3401 122.705 68.1565 122.346 67.7893C121.986 67.4221 121.807 66.8428 121.807 66.0512V62.4282H123.092V66.0268C123.092 66.4429 123.182 66.753 123.361 66.957C123.541 67.161 123.79 67.263 124.108 67.263C124.459 67.263 124.761 67.1692 125.014 66.9815C125.275 66.7856 125.495 66.5612 125.675 66.3083V62.4282H126.972V67.8505C126.972 68.3646 126.903 68.8093 126.764 69.1847C126.625 69.56 126.43 69.866 126.177 70.1027C125.932 70.3475 125.634 70.527 125.283 70.6412C124.94 70.7555 124.557 70.8126 124.133 70.8126C123.708 70.8126 123.3 70.7596 122.909 70.6535C122.525 70.5474 122.211 70.4128 121.966 70.2496L122.284 69.2336C122.815 69.56 123.386 69.7232 123.998 69.7232C124.528 69.7232 124.94 69.5886 125.234 69.3193C125.536 69.05 125.687 68.5727 125.687 67.8872V67.3242ZM137.325 62.7097C137.325 63.0851 137.255 63.436 137.117 63.7624C136.986 64.0806 136.794 64.3621 136.541 64.6069C136.297 64.8436 135.995 65.0312 135.636 65.17C135.285 65.3087 134.889 65.378 134.448 65.378H133.004V68.3401H131.682V60.0904H134.522C134.963 60.0904 135.354 60.1597 135.697 60.2984C136.048 60.429 136.342 60.6126 136.578 60.8492C136.823 61.0859 137.007 61.3633 137.129 61.6816C137.26 61.9998 137.325 62.3425 137.325 62.7097ZM136.003 62.7097C136.003 62.2691 135.876 61.9182 135.623 61.6571C135.371 61.396 135.003 61.2654 134.522 61.2654H133.004V64.203H134.448C134.938 64.203 135.317 64.0724 135.587 63.8113C135.864 63.542 136.003 63.1748 136.003 62.7097ZM141.559 65.5372H140.519C140.07 65.5372 139.723 65.6351 139.478 65.8309C139.242 66.0268 139.124 66.3001 139.124 66.651C139.124 66.9121 139.201 67.1202 139.356 67.2752C139.519 67.4303 139.723 67.5078 139.968 67.5078C140.205 67.5078 140.421 67.4629 140.617 67.3732C140.813 67.2834 140.98 67.1651 141.119 67.0182C141.257 66.8713 141.363 66.704 141.437 66.5164C141.518 66.3205 141.559 66.1247 141.559 65.9288V65.5372ZM137.887 66.6755C137.887 65.9656 138.124 65.4515 138.597 65.1332C139.07 64.8068 139.715 64.6436 140.531 64.6436H141.559V64.4478C141.559 64.0561 141.453 63.7705 141.241 63.591C141.029 63.4033 140.731 63.3095 140.348 63.3095C140.005 63.3095 139.687 63.3503 139.393 63.4319C139.099 63.5135 138.822 63.6236 138.56 63.7624L138.267 62.8566C138.503 62.7097 138.813 62.5792 139.197 62.4649C139.58 62.3507 140.001 62.2936 140.458 62.2936C141.257 62.2936 141.849 62.4894 142.232 62.8811C142.616 63.2728 142.808 63.8113 142.808 64.4968V68.3401H141.743L141.559 67.4588C141.478 67.5894 141.384 67.7159 141.278 67.8383C141.18 67.9607 141.057 68.0708 140.911 68.1688C140.772 68.2585 140.605 68.332 140.409 68.3891C140.213 68.4462 139.98 68.4748 139.711 68.4748C139.458 68.4748 139.221 68.434 139.001 68.3524C138.781 68.2789 138.585 68.1647 138.414 68.0096C138.25 67.8546 138.12 67.6669 138.022 67.4466C137.932 67.2181 137.887 66.9611 137.887 66.6755ZM145.792 63.3707C145.865 63.2483 145.947 63.1218 146.037 62.9912C146.135 62.8607 146.245 62.7464 146.367 62.6485C146.49 62.5424 146.628 62.4568 146.783 62.3915C146.947 62.3262 147.126 62.2936 147.322 62.2936C147.542 62.2936 147.722 62.3262 147.861 62.3915C147.999 62.4568 148.097 62.5098 148.154 62.5506L147.836 63.7746C147.648 63.6114 147.4 63.5298 147.089 63.5298C146.804 63.5298 146.547 63.5992 146.318 63.7379C146.098 63.8684 145.923 64.0684 145.792 64.3376V68.3401H144.495V62.4282H145.596L145.792 63.3707ZM150.696 66.6143C150.696 66.8836 150.741 67.0876 150.831 67.2263C150.929 67.365 151.104 67.4344 151.357 67.4344C151.676 67.4344 151.965 67.3528 152.226 67.1896L152.508 68.132C152.32 68.2463 152.116 68.332 151.896 68.3891C151.684 68.4462 151.431 68.4748 151.137 68.4748C150.55 68.4748 150.117 68.3279 149.84 68.0341C149.57 67.7322 149.436 67.2589 149.436 66.6143V63.3952H148.53V62.4282H149.448L149.754 60.7391H150.696V62.4282H152.447V63.3952H150.696V66.6143ZM154.96 68.3401H153.663V62.4282H154.789L154.96 63.2605C155.042 63.1544 155.148 63.0443 155.278 62.93C155.409 62.8158 155.56 62.7138 155.731 62.624C155.903 62.5261 156.09 62.4486 156.294 62.3915C156.498 62.3262 156.718 62.2936 156.955 62.2936C157.567 62.2936 158.049 62.5016 158.399 62.9178C158.75 63.3258 158.926 63.9011 158.926 64.6436V68.3401H157.628V64.6681C157.628 64.2601 157.543 63.946 157.371 63.7256C157.208 63.4972 156.955 63.3829 156.612 63.3829C156.27 63.3829 155.956 63.4686 155.67 63.64C155.384 63.8113 155.148 64.0194 154.96 64.2642V68.3401ZM161.537 65.8799C161.611 66.4184 161.803 66.8183 162.113 67.0794C162.431 67.3324 162.835 67.4588 163.324 67.4588C163.586 67.4588 163.847 67.4303 164.108 67.3732C164.369 67.316 164.618 67.2304 164.854 67.1161L165.148 68.0464C164.618 68.332 163.965 68.4748 163.19 68.4748C162.7 68.4748 162.272 68.4054 161.905 68.2667C161.537 68.1198 161.231 67.9117 160.987 67.6424C160.742 67.3732 160.558 67.0468 160.436 66.6632C160.313 66.2797 160.252 65.8513 160.252 65.378C160.252 64.9537 160.305 64.5539 160.411 64.1785C160.517 63.8032 160.681 63.4768 160.901 63.1993C161.129 62.9137 161.419 62.6934 161.77 62.5384C162.121 62.3752 162.541 62.2936 163.031 62.2936C163.43 62.2936 163.781 62.3548 164.083 62.4772C164.393 62.5996 164.65 62.7709 164.854 62.9912C165.067 63.2116 165.222 63.4768 165.32 63.7868C165.426 64.0969 165.479 64.4356 165.479 64.8028C165.479 64.9986 165.462 65.1904 165.43 65.378C165.405 65.5657 165.373 65.733 165.332 65.8799H161.537ZM163.043 63.2605C162.553 63.2605 162.182 63.4237 161.929 63.7501C161.684 64.0765 161.541 64.509 161.501 65.0476H164.267V64.8272C164.267 64.3295 164.169 63.946 163.973 63.6767C163.785 63.3992 163.475 63.2605 163.043 63.2605ZM168.097 63.3707C168.17 63.2483 168.252 63.1218 168.341 62.9912C168.439 62.8607 168.549 62.7464 168.672 62.6485C168.794 62.5424 168.933 62.4568 169.088 62.3915C169.251 62.3262 169.431 62.2936 169.627 62.2936C169.847 62.2936 170.026 62.3262 170.165 62.3915C170.304 62.4568 170.402 62.5098 170.459 62.5506L170.141 63.7746C169.953 63.6114 169.704 63.5298 169.394 63.5298C169.108 63.5298 168.851 63.5992 168.623 63.7379C168.403 63.8684 168.227 64.0684 168.097 64.3376V68.3401H166.799V62.4282H167.901L168.097 63.3707Z" fill="var(--fill-0, white)"/>
<path id="Vector_2" d="M111.474 29.572H108.847C108.445 29.572 108.121 30.0004 108.121 30.5322V52.0718C108.121 52.6036 108.445 53.032 108.847 53.032H111.474C111.876 53.032 112.201 52.6036 112.201 52.0718V30.5322C112.201 30.0004 111.876 29.572 111.474 29.572Z" fill="var(--fill-0, white)"/>
<path id="Vector_3" d="M137.731 29.572H134.099C133.542 29.572 133.094 29.9989 133.094 30.5291V43.2828L122.771 29.9989C122.771 29.9989 122.724 29.9402 122.693 29.8959C122.678 29.8812 122.663 29.8519 122.632 29.837C122.632 29.837 122.632 29.837 122.616 29.8223C122.601 29.8076 122.585 29.7929 122.57 29.7782C122.57 29.7782 122.554 29.7782 122.539 29.7633C122.523 29.7633 122.508 29.734 122.493 29.734C122.493 29.734 122.477 29.734 122.462 29.7193C122.446 29.7193 122.431 29.7046 122.4 29.6897C122.4 29.6897 122.384 29.6897 122.369 29.6897C122.353 29.6897 122.338 29.675 122.307 29.6603C122.307 29.6603 122.292 29.6603 122.276 29.6603C122.261 29.6603 122.23 29.6603 122.214 29.6456H122.183C122.168 29.6456 122.153 29.6456 122.122 29.6456C122.122 29.6456 122.091 29.6456 122.075 29.6456C122.06 29.6456 122.044 29.6456 122.029 29.6456C122.013 29.6456 121.998 29.6456 121.967 29.6456C121.967 29.6456 121.952 29.6456 121.936 29.6456H118.304C117.748 29.6456 117.3 30.0726 117.3 30.6028V52.0748C117.3 52.6048 117.748 53.032 118.304 53.032H121.936C122.493 53.032 122.941 52.6048 122.941 52.0748V39.3211L133.28 52.6344C133.357 52.7374 133.434 52.811 133.542 52.87C133.558 52.87 133.589 52.8994 133.604 52.8994C133.604 52.8994 133.62 52.8994 133.635 52.9141C133.635 52.9141 133.666 52.9141 133.682 52.929C133.682 52.929 133.713 52.929 133.728 52.9436H133.759C133.759 52.9436 133.805 52.973 133.821 52.973C133.898 52.9877 133.991 53.0026 134.083 53.0026H137.715C138.272 53.0026 138.72 52.5754 138.72 52.0452V30.5291C138.72 29.9989 138.272 29.572 137.715 29.572" fill="var(--fill-0, white)"/>
<path id="Vector_4" d="M103.061 47.6774H93.3029V30.5334C93.3029 30.001 92.8594 29.572 92.3088 29.572H88.7143C88.1637 29.572 87.7202 30.001 87.7202 30.5334V52.1001C87.7202 52.3663 87.8273 52.5883 87.9956 52.7658C87.9956 52.7658 87.9956 52.7658 88.0109 52.7658C88.1943 52.9283 88.4238 53.032 88.699 53.032H103.046C103.597 53.032 104.04 52.603 104.04 52.0705V48.5944C104.04 48.0619 103.597 47.6329 103.046 47.6329" fill="var(--fill-0, white)"/>
<path id="Vector_5" d="M158.14 29.6162H143.78C143.504 29.6162 143.259 29.7197 143.091 29.8823C143.091 29.8823 143.091 29.8823 143.075 29.8969C142.907 30.0742 142.8 30.2958 142.8 30.5618V52.1013C142.8 52.3671 142.907 52.5887 143.075 52.766C143.259 52.9286 143.504 53.032 143.764 53.032H158.125C158.676 53.032 159.12 52.6036 159.12 52.0718V48.5999C159.12 48.068 158.676 47.6396 158.125 47.6396H148.357V44.0054H158.125C158.676 44.0054 159.12 43.577 159.12 43.0452V39.5735C159.12 39.0417 158.676 38.6133 158.125 38.6133H148.357V34.9643H158.125C158.676 34.9643 159.12 34.5357 159.12 34.0039V30.5322C159.12 30.0004 158.676 29.572 158.125 29.572" fill="var(--fill-0, white)"/>
<path id="Vector_6" d="M53.3259 25.5062C51.7143 25.5062 50.1027 25.5674 48.5013 25.6796C38.8929 26.363 33.0687 28.1684 30.3759 29.2394C29.2845 29.6678 28.5603 30.7286 28.5603 31.9118V59.156C28.5603 73.0484 47.5935 81.3206 52.2855 83.1464C52.9485 83.4116 53.6931 83.4116 54.3663 83.1464C59.0583 81.3206 78.0915 73.0484 78.0915 59.156V31.9016C78.0915 30.7286 77.3775 29.6678 76.2759 29.2292C73.5729 28.1582 67.7589 26.3528 58.1505 25.6694C56.5491 25.5572 54.9375 25.496 53.3259 25.496" fill="var(--fill-0, white)"/>
<path id="Vector_7" d="M60.3446 57.6565H50.7974V40.3267C50.7974 39.7861 50.3588 39.3577 49.8182 39.3577H46.3094C45.7688 39.3577 45.3302 39.7963 45.3302 40.3267V62.1445C45.3302 62.4097 45.4322 62.6443 45.6056 62.8177H45.6158C45.6158 62.8177 45.626 62.8381 45.626 62.8483C45.7994 63.0115 46.034 63.1237 46.2992 63.1237H60.3344C60.875 63.1237 61.3034 62.6851 61.3034 62.1445V58.6357C61.3034 58.0951 60.8648 57.6565 60.3344 57.6565" fill="var(--fill-0, black)"/>
</g>
</svg>
