<svg preserveAspectRatio="none" width="100%" height="100%" overflow="visible" style="display: block;" viewBox="0 0 65.6194 37.6992" fill="none" xmlns="http://www.w3.org/2000/svg">
<path id="Vector" d="M9.82464 11.1792H7.9968L7.03392 8.47008H2.7744L1.82784 11.1792H0L4.01472 0.179519H5.80992L9.82464 11.1792ZM5.67936 4.61856L4.92864 2.00736H4.896L4.14528 4.61856L3.32928 6.95232H6.49536L5.67936 4.61856ZM15.9516 1.50144C14.7765 1.50144 13.8463 1.85497 13.1609 2.56224C12.4754 3.25849 12.1327 4.31399 12.1327 5.72832C12.1327 6.34848 12.2088 6.91417 12.3612 7.4256C12.5134 7.92601 12.7202 8.35584 12.9813 8.71488C13.2533 9.07392 13.5742 9.35687 13.9442 9.56352C14.3141 9.75936 14.7221 9.85728 15.1682 9.85728C15.5054 9.85728 15.821 9.80832 16.1148 9.7104C16.4085 9.60167 16.6586 9.44928 16.8655 9.25344C17.083 9.04679 17.2517 8.78567 17.3714 8.47008C17.491 8.15449 17.5509 7.78464 17.5509 7.36032V6.47904H15.3967V4.96128H19.2645V11.1792H17.7794L17.5509 9.88992C17.3333 10.2924 17.0124 10.6406 16.5881 10.9344C16.1637 11.2173 15.6142 11.3587 14.9397 11.3587C14.2325 11.3587 13.596 11.2227 13.0303 10.9507C12.4754 10.6788 11.9966 10.2979 11.5941 9.80832C11.2025 9.31872 10.8977 8.7312 10.6802 8.04576C10.4734 7.34951 10.3701 6.57696 10.3701 5.72832C10.3701 4.83623 10.4952 4.03655 10.7455 3.32928C10.9956 2.62201 11.3546 2.02368 11.8226 1.53408C12.3012 1.03367 12.8779 0.652799 13.5525 0.391679C14.238 0.130559 15.0103 0 15.87 0C16.4575 0 16.985 0.0597707 17.453 0.179519C17.9316 0.299267 18.3833 0.467771 18.8076 0.685439L18.3669 2.07264C18.0187 1.89863 17.6325 1.76256 17.2082 1.66464C16.7947 1.55591 16.3759 1.50144 15.9516 1.50144ZM21.5557 0.179519H28.4917V1.72992H23.2856V4.76544H28.1653V6.29952H23.2856V9.64512H28.5896V11.1792H21.5557V0.179519ZM37.3175 0.179519H39.0801V11.1792H37.2686L33.2049 4.52064C32.9764 4.15079 32.7697 3.75911 32.5847 3.3456C32.3999 2.93209 32.2475 2.55673 32.1278 2.21952H32.0788C32.1551 2.63303 32.2094 3.07367 32.242 3.54144C32.2746 3.9984 32.2909 4.42823 32.2909 4.83072V11.1792H30.5284V0.179519H32.4215L36.4036 6.8544C36.6213 7.22425 36.8226 7.61593 37.0074 8.02944C37.2033 8.43193 37.3612 8.80729 37.4807 9.15552H37.5134C37.4481 8.74201 37.3991 8.30688 37.3665 7.84992C37.3338 7.38215 37.3175 6.94151 37.3175 6.528V0.179519ZM46.1929 11.3587C45.3225 11.3587 44.5554 11.2173 43.8918 10.9344C43.239 10.6514 42.695 10.2598 42.2598 9.75936C41.8245 9.25895 41.4981 8.66041 41.2806 7.96416C41.0629 7.26791 40.9542 6.50617 40.9542 5.67936C40.9542 4.86336 41.0685 4.11264 41.2969 3.4272C41.5254 2.73095 41.8626 2.13241 42.3088 1.632C42.7547 1.12057 43.2988 0.723587 43.9408 0.440639C44.5936 0.146879 45.3443 0 46.1929 0C46.7805 0 47.3027 0.0544678 47.7597 0.1632C48.2166 0.26112 48.6573 0.418811 49.0816 0.636479L48.6409 2.02368C47.9229 1.67545 47.1395 1.50144 46.2909 1.50144C45.1374 1.50144 44.2509 1.86599 43.6307 2.59488C43.0213 3.32377 42.7168 4.35193 42.7168 5.67936C42.7168 6.99577 43.0213 8.02393 43.6307 8.76384C44.2398 9.49273 45.1266 9.85728 46.2909 9.85728C46.6715 9.85728 47.0742 9.81383 47.4985 9.72672C47.9229 9.6288 48.3362 9.47641 48.7389 9.26976L49.1632 10.6733C48.7497 10.8909 48.2927 11.0595 47.7923 11.1792C47.3027 11.2989 46.7694 11.3587 46.1929 11.3587ZM54.2942 4.99392L56.9544 0.179519H58.8475L55.1755 6.49536V11.1792H53.4129V6.49536L49.7409 0.179519H51.634L54.2942 4.99392ZM8.55167 30.192C8.55167 30.6924 8.45927 31.1604 8.27424 31.5955C8.10023 32.0198 7.84441 32.3952 7.5072 32.7216C7.1808 33.0372 6.7783 33.2873 6.29951 33.4723C5.83174 33.6573 5.304 33.7498 4.71648 33.7498H2.79072V37.6992H1.02816V26.6995H4.8144C5.40192 26.6995 5.92416 26.7919 6.38112 26.977C6.84889 27.151 7.24057 27.3958 7.55616 27.7114C7.88256 28.0269 8.12736 28.3968 8.29056 28.8211C8.46457 29.2454 8.55167 29.7024 8.55167 30.192ZM6.78912 30.192C6.78912 29.6045 6.62041 29.1367 6.2832 28.7885C5.94598 28.4403 5.45639 28.2662 4.8144 28.2662H2.79072V32.183H4.71648C5.36928 32.183 5.8752 32.009 6.23424 31.6608C6.60409 31.3018 6.78912 30.8122 6.78912 30.192ZM18.2237 37.6992H16.3959L15.433 34.9901H11.1735L10.2269 37.6992H8.39909L12.4138 26.6995H14.209L18.2237 37.6992ZM14.0784 31.1386L13.3277 28.5274H13.2951L12.5444 31.1386L11.7284 33.4723H14.8944L14.0784 31.1386ZM27.4604 30.0614C27.4604 30.823 27.2428 31.4868 26.8076 32.0525C26.3725 32.6074 25.7903 32.999 25.0614 33.2275L27.6563 37.6992H25.7632L23.3152 33.4886H21.4057V37.6992H19.6432V26.6995H23.6742C24.2725 26.6995 24.8058 26.7866 25.2736 26.9606C25.7523 27.1347 26.1493 27.3741 26.4649 27.6787C26.7913 27.9833 27.0361 28.3423 27.1993 28.7558C27.3733 29.1583 27.4604 29.5937 27.4604 30.0614ZM25.6979 30.0614C25.6979 29.5174 25.5292 29.0822 25.192 28.7558C24.8547 28.4294 24.3488 28.2662 23.6742 28.2662H21.4057V31.9219H23.6252C24.278 31.9219 24.784 31.7532 25.143 31.416C25.5129 31.0788 25.6979 30.6271 25.6979 30.0614ZM33.0735 37.6992H31.3109V28.2499L28.0796 28.2662V26.6995H36.3212V28.2662L33.0735 28.2499V37.6992ZM44.4257 26.6995H46.1882V37.6992H44.3767L40.313 31.0406C40.0846 30.6708 39.8779 30.2791 39.6929 29.8656C39.5079 29.4521 39.3557 29.0767 39.2359 28.7395H39.187C39.2631 29.153 39.3175 29.5937 39.3502 30.0614C39.3828 30.5184 39.3991 30.9482 39.3991 31.3507V37.6992H37.6366V26.6995H39.5297L43.5118 33.3744C43.7294 33.7442 43.9306 34.1359 44.1156 34.5494C44.3114 34.9519 44.4691 35.3273 44.5889 35.6755H44.6215C44.5562 35.262 44.5073 34.8269 44.4747 34.3699C44.442 33.9021 44.4257 33.4615 44.4257 33.048V26.6995ZM48.6334 26.6995H55.5694V28.2499H50.3633V31.2854H55.243V32.8195H50.3633V36.1651H55.6673V37.6992H48.6334V26.6995ZM65.4236 30.0614C65.4236 30.823 65.2059 31.4868 64.7708 32.0525C64.3355 32.6074 63.7535 32.999 63.0246 33.2275L65.6194 37.6992H63.7263L61.2783 33.4886H59.3689V37.6992H57.6063V26.6995H61.6374C62.2357 26.6995 62.7688 26.7866 63.2367 26.9606C63.7153 27.1347 64.1125 27.3741 64.4281 27.6787C64.7545 27.9833 64.9993 28.3423 65.1625 28.7558C65.3365 29.1583 65.4236 29.5937 65.4236 30.0614ZM63.6611 30.0614C63.6611 29.5174 63.4923 29.0822 63.1551 28.7558C62.8177 28.4294 62.3118 28.2662 61.6374 28.2662H59.3689V31.9219H61.5884C62.2412 31.9219 62.7471 31.7532 63.1062 31.416C63.476 31.0788 63.6611 30.6271 63.6611 30.0614Z" fill="var(--fill-0, white)"/>
</svg>
