<svg preserveAspectRatio="none" width="100%" height="100%" overflow="visible" style="display: block;" viewBox="0 0 144.32 40.6751" fill="none" xmlns="http://www.w3.org/2000/svg">
<g id="Group">
<path id="Vector" d="M18.9692 14.1419C18.9692 23.8615 18.7856 28.8364 18.4184 29.9419C17.684 32.1069 15.2972 33.6272 12.6809 33.6272C10.9367 33.6272 10.3859 33.3968 8.87119 31.8305C7.35649 30.3105 7.08109 29.7577 7.08109 28.0533C7.08109 24.4602 9.33019 22.1571 12.9563 22.1109H14.8841V18.7023V15.3396L13.2776 15.0632C10.3859 14.6025 6.07129 16.3069 3.54679 18.9785C-4.25621 27.132 1.66489 40.721 13.0481 40.6749C18.0053 40.6749 21.9068 38.3718 24.3395 33.9956C25.6706 31.5543 25.6706 31.5082 25.8083 22.6638C25.9001 17.8269 26.0378 13.8194 26.1296 13.8194C26.1755 13.8194 27.3689 14.3261 28.7459 14.9709C30.1229 15.616 32.2343 16.2608 33.3818 16.3989L35.5391 16.7215V13.2665V9.85789L33.6113 9.35115C29.618 8.29158 26.6345 5.25137 26.0837 1.75052L25.7624 0H22.4117H19.0151L18.9692 14.1419Z" fill="var(--fill-0, white)"/>
<path id="Vector_2" d="M43.3416 12.8963V15.1995H46.0956H48.8496V24.182V33.1645H51.6036H54.3576V24.4123V15.6601H56.6526C58.9017 15.6601 58.9017 15.6601 59.4066 13.7715C59.682 12.758 60.0492 11.6064 60.1869 11.238C60.3705 10.6852 59.1312 10.5929 51.879 10.5929H43.3416V12.8963Z" fill="var(--fill-0, white)"/>
<path id="Vector_3" d="M62.3913 11.7473C61.7487 12.346 61.2438 13.037 61.2438 13.2673C61.2438 14.1427 63.1716 16.1233 64.0437 16.1233C65.1912 16.1233 66.7517 14.5111 66.7517 13.3595C66.7517 12.254 65.1912 10.5957 64.2273 10.5957C63.8142 10.5957 62.988 11.1023 62.3913 11.7473Z" fill="var(--fill-0, white)"/>
<path id="Vector_4" d="M69.0453 21.8788V33.1645H71.7993H74.5533V30.2626C74.5533 27.6369 75.0582 26.255 75.9762 26.255C76.2057 26.255 77.445 27.8212 78.7302 29.7098L81.1629 33.1645H84.1005H87.0381L85.4316 30.9536C84.6054 29.7559 82.9071 27.3605 81.6678 25.6561L79.4646 22.4776L82.5399 19.3913C84.1923 17.7329 85.5693 16.1668 85.5693 15.9826C85.5693 15.7982 84.33 15.6601 82.7694 15.6601C80.0154 15.6601 79.9695 15.7062 77.2614 18.2858L74.5533 20.8654V15.7523V10.5929H71.7993H69.0453V21.8788Z" fill="var(--fill-0, white)"/>
<path id="Vector_5" d="M88.3215 12.8963V15.1995H91.0755H93.8295V24.182V33.1645H96.5835H99.3375V24.4123V15.6601H101.449C103.606 15.6601 103.927 15.3376 105.029 11.6064L105.35 10.5929H96.8589H88.3215V12.8963Z" fill="var(--fill-0, white)"/>
<path id="Vector_6" d="M126.878 21.8845V33.2163L129.541 33.0782L132.157 32.9401L132.295 30.1761C132.432 27.6426 132.937 26.2607 133.763 26.2607C133.947 26.2607 135.186 27.8268 136.517 29.7154L138.95 33.1704H141.658C143.127 33.1704 144.32 33.0782 144.32 32.9401C144.32 32.8018 142.76 30.3603 140.832 27.5965L137.298 22.4834L140.373 19.3969C142.025 17.7386 143.402 16.1725 143.402 15.9883C143.402 15.8041 142.163 15.6658 140.602 15.6658C137.848 15.6658 137.803 15.7119 135.14 18.2453L132.432 20.8249L132.295 15.85L132.157 10.8289L129.541 10.6908L126.878 10.5527V21.8845Z" fill="var(--fill-0, white)"/>
<path id="Vector_7" d="M111.09 15.4345C103.424 18.1522 102.782 28.563 110.08 32.3402C111.549 33.0773 112.558 33.2154 115.45 33.0773C118.525 32.939 119.26 32.7547 120.958 31.5571C125.778 28.1023 126.282 21.7453 122.06 17.6916C119.214 14.9278 114.899 14.0526 111.09 15.4345ZM117.378 21.1004C120.04 23.8642 118.066 28.563 114.257 28.563C110.447 28.563 108.427 23.7261 111.09 21.0082C112.834 19.304 115.68 19.304 117.378 21.1004Z" fill="var(--fill-0, white)"/>
<path id="Vector_8" d="M61.2438 25.564V33.1646H63.9978H66.7517V25.564V17.9634H63.9978H61.2438V25.564Z" fill="var(--fill-0, white)"/>
</g>
</svg>
