<svg preserveAspectRatio="none" width="100%" height="100%" overflow="visible" style="display: block;" viewBox="0 0 122.999 47.0034" fill="none" xmlns="http://www.w3.org/2000/svg">
<g id="Layer_1-2">
<path id="Vector" d="M44.9253 46.9547L44.5179 45.8529H42.3662L41.9588 46.9547H41.3293L43.1981 42.0684H43.6811L45.5425 46.9547H44.9229H44.9253ZM43.4518 42.9002L42.5321 45.3713H44.352L43.4518 42.9002Z" fill="var(--fill-0, #CBCBCB)"/>
<path id="Vector_2" d="M52.7418 45.5513C52.7272 45.6681 52.7003 45.7775 52.6662 45.8797C52.632 45.9818 52.5881 46.0767 52.5345 46.1667C52.4808 46.2567 52.4149 46.3418 52.3368 46.4245C52.1612 46.6142 51.9636 46.7553 51.7416 46.855C51.5196 46.9523 51.2829 47.0034 51.0292 47.0034C50.7901 47.0034 50.5657 46.9596 50.351 46.872C50.1363 46.7845 49.946 46.6556 49.7801 46.4829C49.663 46.3686 49.5703 46.2494 49.5069 46.1253C49.441 46.0013 49.3947 45.8627 49.3654 45.7094C49.3361 45.5562 49.3191 45.3835 49.3142 45.1889C49.3093 44.9944 49.3069 44.7706 49.3069 44.5152C49.3069 44.3425 49.3069 44.1844 49.3069 44.0409C49.3069 43.8974 49.3142 43.7661 49.3215 43.6469C49.3312 43.5277 49.3434 43.4159 49.363 43.3137C49.3825 43.2115 49.4093 43.1167 49.4435 43.0291C49.4776 42.9416 49.524 42.8564 49.5777 42.7737C49.6313 42.6911 49.6996 42.6132 49.7777 42.5354C49.9436 42.3651 50.1314 42.2387 50.3437 42.1535C50.5559 42.0684 50.7828 42.0246 51.0268 42.0246C51.2707 42.0246 51.4757 42.0611 51.6733 42.1365C51.8684 42.2119 52.0417 42.3141 52.188 42.4478C52.3368 42.5816 52.4588 42.7397 52.554 42.9221C52.6491 43.1045 52.715 43.304 52.7516 43.5229H52.1905C52.1563 43.3696 52.1051 43.231 52.0368 43.107C51.9685 42.9829 51.8831 42.8783 51.7831 42.7932C51.683 42.7081 51.5708 42.6424 51.4415 42.5962C51.3122 42.55 51.1756 42.5281 51.0243 42.5281C50.8584 42.5281 50.7047 42.5573 50.5608 42.6157C50.4169 42.674 50.2949 42.7567 50.1924 42.8637C50.1168 42.9416 50.0583 43.0218 50.0143 43.1094C49.9704 43.197 49.9387 43.3015 49.9168 43.4256C49.8948 43.5496 49.8802 43.698 49.8753 43.8731C49.868 44.0482 49.8655 44.2623 49.8655 44.5152C49.8655 44.6806 49.8655 44.8314 49.868 44.9652C49.8704 45.0989 49.8753 45.2181 49.8826 45.3227C49.8899 45.4273 49.9021 45.5221 49.9168 45.6024C49.9314 45.6827 49.9509 45.7581 49.9753 45.8237C49.9997 45.8894 50.029 45.9502 50.0656 46.0062C50.1022 46.0621 50.1436 46.1156 50.1949 46.1667C50.2973 46.2737 50.4193 46.3564 50.5632 46.4148C50.7072 46.4731 50.8609 46.5023 51.0268 46.5023C51.1146 46.5023 51.2 46.4926 51.2854 46.4756C51.3708 46.4585 51.4513 46.4318 51.5293 46.3977C51.6074 46.3637 51.6782 46.3199 51.7465 46.2688C51.8148 46.2178 51.8758 46.157 51.9294 46.0888C52.0295 45.9697 52.1026 45.8408 52.1466 45.7021C52.1905 45.5635 52.2124 45.403 52.2124 45.2205V44.8727H51.0121V44.379H52.7662V45.1719C52.7662 45.3105 52.7589 45.437 52.7418 45.5538V45.5513Z" fill="var(--fill-0, #CBCBCB)"/>
<path id="Vector_3" d="M56.5696 46.9547V42.0684H59.7337V42.5694H57.1404V44.2404H59.3483V44.7414H57.1404V46.4512H59.7337V46.9523H56.5696V46.9547Z" fill="var(--fill-0, #CBCBCB)"/>
<path id="Vector_4" d="M66.8281 46.9547L64.0982 43.0729V46.9547H63.5273V42.0684H64.003L66.733 45.9405V42.0684H67.3038V46.9547H66.8281Z" fill="var(--fill-0, #CBCBCB)"/>
<path id="Vector_5" d="M74.5397 45.527C74.5007 45.7581 74.4323 45.9648 74.3323 46.1472C74.2323 46.3296 74.1079 46.4853 73.9591 46.6118C73.8102 46.7382 73.6419 46.8355 73.4516 46.9012C73.2613 46.9669 73.0564 47.0009 72.8344 47.0009C72.5953 47.0009 72.3709 46.9571 72.1562 46.8696C71.9415 46.782 71.7512 46.6531 71.5853 46.4804C71.4682 46.3661 71.3755 46.2469 71.3121 46.1229C71.2487 45.9989 71.1999 45.8602 71.1706 45.707C71.1413 45.5538 71.1242 45.3811 71.1194 45.1865C71.1145 44.9919 71.112 44.7682 71.112 44.5128C71.112 44.3401 71.112 44.182 71.112 44.0385C71.112 43.895 71.1194 43.7637 71.1267 43.6445C71.134 43.5253 71.1486 43.4134 71.1682 43.3113C71.1877 43.2091 71.2145 43.1143 71.2487 43.0267C71.2828 42.9391 71.3292 42.854 71.3828 42.7713C71.4365 42.6886 71.5048 42.6108 71.5829 42.533C71.7488 42.3627 71.9391 42.2362 72.1538 42.1511C72.3684 42.066 72.5953 42.0222 72.832 42.0222C73.054 42.0222 73.2589 42.0562 73.4492 42.1244C73.6395 42.1925 73.8054 42.2897 73.9517 42.4186C74.0981 42.5476 74.2201 42.7032 74.3201 42.8856C74.4201 43.068 74.4909 43.2772 74.5348 43.5083H73.9639C73.9322 43.3599 73.8834 43.2237 73.8176 43.1021C73.7517 42.9805 73.6712 42.8759 73.5736 42.7908C73.476 42.7056 73.3662 42.64 73.2418 42.5938C73.1174 42.5476 72.9783 42.5232 72.8295 42.5232C72.6685 42.5232 72.5148 42.5524 72.3709 42.6108C72.2269 42.6692 72.1001 42.7494 71.9976 42.8516C71.922 42.9294 71.8634 43.0121 71.8195 43.0997C71.7756 43.1872 71.7439 43.2942 71.7219 43.4183C71.7 43.5423 71.6853 43.6931 71.6805 43.8707C71.6756 44.0482 71.6707 44.2623 71.6707 44.5152C71.6707 44.6806 71.6707 44.8314 71.6732 44.9652C71.6756 45.0989 71.6805 45.2181 71.6878 45.3227C71.6951 45.4273 71.7073 45.5221 71.7219 45.6024C71.7366 45.6827 71.7561 45.7581 71.7805 45.8237C71.8049 45.8894 71.8342 45.9502 71.8708 46.0062C71.9074 46.0621 71.9488 46.1156 72.0001 46.1667C72.1025 46.2737 72.2269 46.3564 72.3733 46.4148C72.5197 46.4731 72.6734 46.5023 72.832 46.5023C72.9808 46.5023 73.1198 46.478 73.2467 46.4318C73.3736 46.3856 73.4858 46.3175 73.5858 46.2324C73.6858 46.1472 73.7688 46.0426 73.8371 45.9235C73.9054 45.8043 73.9542 45.6681 73.9859 45.5197H74.5177L74.5372 45.5294L74.5397 45.527Z" fill="var(--fill-0, #CBCBCB)"/>
<path id="Vector_6" d="M80.4265 44.9287V46.9547H79.8556V44.9287L78.3455 42.0708H78.9651L80.1386 44.3693L81.312 42.0708H81.9317L80.4313 44.9287H80.4265Z" fill="var(--fill-0, #CBCBCB)"/>
<path id="Vector_7" d="M33.83 0.424194C31.1342 3.88523 26.743 4.57597 24.5034 4.71218C23.8374 4.75353 23.3641 4.7438 23.1787 4.7438C22.3712 4.7438 15.4476 4.40572 12.6884 4.23546C9.92675 4.06521 5.97703 3.55688 3.72528 5.63398C1.47596 7.70866 2.11026 11.2597 2.11026 11.2597C2.04439 11.2694 1.9712 11.25 1.91997 11.1989C0.809949 10.1238 0 8.59885 0 6.57038C0 2.49157 3.36178 0.0326084 6.5601 0.0326084C7.86285 -0.152239 23.5593 0.504457 28.9386 0.609042C29.5948 0.621203 30.095 0.626067 30.3999 0.618771C32.2125 0.579855 33.1859 0.455813 33.647 0.370685C33.7202 0.358524 33.7861 0.380414 33.8324 0.424194H33.83Z" fill="url(#paint0_linear_247_558)"/>
<path id="Vector_8" d="M24.4326 31.0651C23.0689 32.3688 21.7149 32.9501 21.7149 32.9501C19.59 33.9837 17.5603 33.9837 17.5603 33.9837C17.5603 33.9837 15.4183 34.2805 13.4593 33.0133C11.5515 31.8021 10.9319 30.1165 10.7709 29.6812C10.5952 29.2458 10.3878 28.5915 10.3952 27.2368C10.4513 26.3369 10.583 24.9992 10.7513 23.4717C11.3295 18.2595 12.342 10.8145 12.3444 10.8097C12.3639 10.5737 12.4322 9.7857 11.8809 9.10225C11.4539 8.57203 10.9611 8.32394 10.3952 8.19504C10.3952 8.19504 14.3937 8.23395 14.0131 11.3885C14.0131 11.3885 13.5325 15.8346 13.108 19.8599C12.7957 22.8321 12.5127 25.5756 12.4761 26.1326C12.3908 27.4435 12.703 31.1502 16.0868 32.4417C19.4656 33.7332 24.4839 30.8462 24.4936 30.8389C24.5156 30.9143 24.501 31.0019 24.4351 31.0651H24.4326Z" fill="url(#paint1_linear_247_558)"/>
<path id="Vector_9" d="M33.8983 0.657624C33.5421 1.8567 32.4736 4.25243 30.1096 6.01821C27.4724 7.9883 24.8986 8.09775 23.8593 8.09775H21.1709C20.9367 8.09775 20.744 8.27287 20.7196 8.50393C20.5878 9.82705 20.156 14.1418 19.7828 17.919C19.5681 20.1056 19.3729 22.1121 19.2656 23.2553C18.9509 26.4317 20.1365 27.8327 20.9562 28.7642C21.8784 29.8198 23.0787 30.3306 23.8764 30.5665C24.0472 30.6176 24.1984 30.6565 24.3253 30.6832C24.4107 30.7027 24.4692 30.7635 24.4912 30.8389C24.479 30.8462 19.4632 33.7308 16.0843 32.4417C12.7006 31.1502 12.3883 27.4435 12.4737 26.1326C12.5591 24.8192 14.0107 11.391 14.0107 11.391C14.3912 8.23639 10.3927 8.19747 10.3927 8.19747C10.1268 8.13667 9.32905 8.10261 9.18267 8.10018C9.10705 8.10018 9.03142 8.10018 8.95579 8.10018H8.83381C7.42372 8.09045 6.06242 8.17072 4.75479 8.88579C3.40325 9.64707 2.81286 10.3305 2.26639 11.1648C2.2298 11.2231 2.17125 11.2548 2.11026 11.2645C2.11026 11.2645 1.47352 7.71346 3.72528 5.63879C5.97703 3.56411 9.92675 4.07244 12.6884 4.24027C15.45 4.41052 22.3736 4.7486 23.1787 4.7486C23.9838 4.7486 30.334 4.91885 33.8324 0.428996C33.8959 0.482505 33.9276 0.570064 33.9007 0.662488L33.8983 0.657624Z" fill="url(#paint2_linear_247_558)"/>
<path id="Vector_10" d="M63.9225 6.19576L59.2263 25.4199L58.8701 26.872C58.8701 26.872 57.7064 32.5414 52.2685 32.5414C46.8307 32.5414 45.7255 26.872 45.7255 26.872L40.6902 6.25414C39.3557 0.796259 34.3984 0.358462 34.3618 0.35603C34.3814 0.270902 34.4497 0.200368 34.5521 0.185775C35.4475 0.0763257 37.4309 -0.0452847 39.302 0.630869C42.0173 1.54781 45.1059 3.99461 46.1037 7.88858C47.1893 12.0404 49.2483 21.1271 49.363 21.6087C49.4752 22.0878 50.0021 24.3108 50.0021 24.3108C50.0021 24.3108 50.107 24.7146 50.2851 24.97C50.4632 25.2229 51.0853 25.9745 52.3002 25.9988C53.5152 25.9745 54.1373 25.2229 54.3154 24.97C54.4935 24.717 54.5984 24.3108 54.5984 24.3108C54.5984 24.3108 55.1253 22.0878 55.2375 21.6087C55.301 21.3436 55.9572 18.4517 56.7135 15.2193C56.9428 14.2415 57.1819 13.2346 57.4161 12.2568C57.8113 10.6127 58.1919 9.05604 58.4968 7.89101C59.0287 5.80904 60.1607 4.14298 61.5122 2.90012C62.4734 3.78544 63.3224 4.8848 63.925 6.19576H63.9225Z" fill="url(#paint3_linear_247_558)"/>
<path id="Vector_11" d="M65.6059 12.2593C64.5105 17.3085 63.0052 24.1601 62.4954 26.0061C62.227 26.979 61.8952 27.8132 61.5122 28.5405C60.7266 30.0387 59.7264 31.07 58.6261 31.8702C56.9941 33.0571 54.9082 33.9862 52.3003 33.9862C49.6923 33.9862 47.6089 33.0571 45.9744 31.8702C44.3423 30.6832 42.9273 28.9831 42.1051 26.0061C41.283 23.0291 37.8676 7.02758 37.7675 6.57276C37.6748 6.13496 37.2625 3.15307 34.4277 0.579793C34.3594 0.516555 34.3423 0.431428 34.3618 0.35603C34.3984 0.358462 39.3557 0.796259 40.6902 6.25414L45.7255 26.872C45.7255 26.872 46.8307 32.5414 52.2685 32.5414C57.7064 32.5414 58.8701 26.872 58.8701 26.872L59.2263 25.4199L63.9225 6.19576C64.1665 6.72598 64.3714 7.29026 64.5251 7.89101C64.8301 9.05847 65.2131 10.6151 65.6059 12.2593Z" fill="url(#paint4_linear_247_558)"/>
<path id="Vector_12" d="M65.6059 12.2593C64.5105 17.3085 63.0052 24.1601 62.4954 26.0061C62.227 26.979 61.8952 27.8132 61.5122 28.5405C60.7266 30.0387 59.7264 31.07 58.6261 31.8702C59.4215 29.4696 59.1409 26.9449 59.0067 26.3223C58.9921 26.2639 56.7135 15.2217 56.7135 15.2217C56.9428 14.2439 57.1819 13.237 57.4161 12.2593C57.8113 10.6151 58.1919 9.05847 58.4968 7.89344C59.0287 5.81147 60.1607 4.14541 61.5122 2.90255C62.4734 3.78788 63.3224 4.88723 63.925 6.19819C64.1689 6.72842 64.3739 7.29269 64.5276 7.89344C64.8325 9.0609 65.2155 10.6175 65.6083 12.2617L65.6059 12.2593Z" fill="url(#paint5_linear_247_558)"/>
<path id="Vector_13" d="M88.5894 0.579793C85.7546 3.15307 85.3447 6.13496 85.2496 6.57275C85.152 7.02758 81.7341 23.0291 80.9119 26.0061C80.0898 28.9831 78.6773 30.6832 77.0427 31.8702C75.4936 32.9963 73.5321 33.8913 71.1072 33.9765C70.9779 33.9813 70.8486 33.9837 70.7168 33.9837C68.1113 33.9837 66.0255 33.0546 64.3909 31.8677C63.2907 31.07 62.2904 30.0363 61.5049 28.538C61.1219 27.8108 60.7901 26.9766 60.5217 26.0037C60.0118 24.1576 58.5042 17.3037 57.4088 12.2544C56.7379 9.15819 56.2207 6.74058 56.1841 6.57032C56.0914 6.13252 55.6791 3.15064 52.8443 0.577361C52.7809 0.52142 52.7638 0.446021 52.7735 0.375487C52.9419 0.390081 57.7869 0.854632 59.0897 6.19333C59.0897 6.19333 63.4468 24.0311 64.1543 26.923C64.8593 29.8174 66.8623 32.5414 70.7119 32.5414C70.8437 32.5414 70.9754 32.539 71.1023 32.5317C74.6958 32.3615 76.5621 29.8222 77.2696 26.9279L82.566 5.2545C82.566 5.2545 83.676 0.494666 88.6479 0.348733C88.6699 0.426564 88.6528 0.516555 88.5821 0.579793H88.5894Z" fill="url(#paint6_linear_247_558)"/>
<path id="Vector_14" d="M88.6552 0.348733C83.6809 0.497098 82.5733 5.2545 82.5733 5.2545L77.2769 26.9279C76.5694 29.8222 74.7032 32.3615 71.1096 32.5317C70.9828 32.539 70.851 32.5414 70.7193 32.5414C66.8696 32.5414 64.8667 29.8149 64.1616 26.923C63.4541 24.0287 59.097 6.19333 59.097 6.19333C57.7942 0.854632 52.9492 0.390081 52.7809 0.375487C52.7955 0.283063 52.8638 0.200368 52.9736 0.185775C53.8689 0.0763257 55.8548 -0.0477169 57.7235 0.630869C58.9897 1.05894 60.3314 1.81535 61.5098 2.89769C62.8613 4.14055 63.9908 5.80661 64.5251 7.88858C64.8301 9.05604 65.2131 10.6127 65.6059 12.2568C66.6159 16.467 67.7015 21.2609 67.7844 21.6062C67.8967 22.0854 68.4236 24.3084 68.4236 24.3084C68.4236 24.3084 68.5285 24.7122 68.7042 24.9675C68.8822 25.2205 69.5068 25.9721 70.7193 25.9964C70.8583 25.9964 70.9876 25.9818 71.1096 25.9623C72.0684 25.8091 72.5783 25.1937 72.7344 24.9675C72.9125 24.7146 73.0174 24.3084 73.0174 24.3084C73.0174 24.3084 73.5443 22.0854 73.6566 21.6062C73.7688 21.1271 75.8302 12.0404 76.9159 7.88615C77.9137 3.99218 81.0022 1.54538 83.715 0.628437C85.5838 -0.0477169 87.5696 0.0738935 88.465 0.183343C88.565 0.195504 88.6309 0.263606 88.6528 0.346301L88.6552 0.348733Z" fill="url(#paint7_linear_247_558)"/>
<path id="Vector_15" d="M107.411 19.5802L102.168 19.5364C102.168 19.5364 99.3236 19.2835 98.8723 22.3043C98.8991 22.1243 99.004 21.7789 99.2992 21.4798C99.592 21.1806 100.012 21.0201 100.363 21.0249C102.058 21.042 104.854 21.0711 105.232 21.0711C105.464 21.0711 105.972 21.1028 106.662 21.0784H106.674C108.267 21.0249 110.814 20.6893 113.112 19.0621C113.112 19.0621 113.117 19.0597 113.12 19.0573C114.976 17.559 115.293 17.0069 116.011 15.893C116.577 15.0271 116.938 13.918 117.094 13.3708C117.113 13.3027 117.099 13.2346 117.062 13.1835C117.03 13.254 114.417 19.1959 107.413 19.5851L107.411 19.5802Z" fill="url(#paint8_linear_247_558)"/>
<path id="Vector_16" d="M95.5959 32.5439C91.6047 31.7485 91.7316 27.6551 92.1122 25.5805C92.4927 23.5058 94.32 14.7401 94.9592 8.43096C95.5935 2.14127 89.5091 0.448454 89.4725 0.438725C89.4457 0.516555 89.4579 0.608979 89.5286 0.674649L89.5799 0.723293C90.1532 1.26811 90.9265 2.12425 91.5511 3.33792C92.3927 4.9675 92.6977 6.54357 92.7416 7.72805C92.7879 8.91254 92.6684 9.53275 92.5318 10.3524C92.4415 10.9702 89.3798 24.9311 89.3798 27.4825C89.3798 29.399 89.9116 31.0773 91.1022 32.2009C92.2903 33.3246 93.8418 34.0056 95.7106 34.0056C97.5793 34.0056 99.6164 33.5995 101.466 32.4077C102.424 31.7899 102.961 31.3302 103.242 31.0529C103.305 30.9897 103.322 30.9046 103.298 30.8292C103.295 30.8292 99.5847 33.3441 95.5935 32.5463L95.5959 32.5439Z" fill="url(#paint9_linear_247_558)"/>
<path id="Vector_17" d="M122.939 0.236851C122.939 0.236851 119.89 6.3952 112.841 6.3952L104.432 6.09847C104.432 6.09847 101.331 5.84552 100.795 9.24818C100.831 9.07063 100.956 8.6377 101.322 8.3434C101.788 7.96641 102.244 7.97614 102.359 7.97857L112.737 8.21206C115.013 8.21206 117.289 7.54564 119.433 5.8966C121.844 4.04812 122.739 1.38242 122.99 0.448454C123.012 0.368191 122.988 0.29036 122.937 0.236851H122.939Z" fill="url(#paint10_linear_247_558)"/>
<path id="Vector_18" d="M104.432 6.09847L112.841 6.3952C119.89 6.3952 122.937 0.244148 122.939 0.236851C122.89 0.185775 122.817 0.156589 122.739 0.16875C121.641 0.346301 117.872 0.854632 111.607 0.684378C107.043 0.560335 92.7465 0.329275 89.6872 0.280631C89.5799 0.280631 89.5018 0.348733 89.4701 0.43386C89.5067 0.443589 95.5935 2.13641 94.9567 8.4261C94.32 14.7352 92.4927 23.5009 92.1097 25.5756C91.7267 27.6503 91.5998 31.7437 95.5935 32.539C99.5847 33.3344 103.295 30.8219 103.298 30.8219C103.276 30.7489 103.217 30.6857 103.129 30.6662C101.7 30.3452 100.351 29.6617 99.1846 28.0832C98.0648 26.5679 98.6235 23.9922 98.6942 23.518C98.704 23.4426 98.7211 23.3282 98.743 23.1872C98.743 23.1823 98.8211 22.6497 98.8601 22.3918C98.865 22.3602 98.8699 22.3286 98.8748 22.297C99.3236 19.2786 102.171 19.5291 102.171 19.5291L107.413 19.5729C114.417 19.1838 117.03 13.2419 117.062 13.1713C117.016 13.1057 116.935 13.0619 116.845 13.074C112.793 13.6335 103.044 13.1713 100.736 13.0497C100.47 13.0351 100.275 12.7968 100.312 12.5341L100.736 9.6422L100.795 9.24089C101.329 5.8358 104.432 6.09118 104.432 6.09118V6.09847Z" fill="url(#paint11_linear_247_558)"/>
</g>
<defs>
<linearGradient id="paint0_linear_247_558" x1="-7.84577" y1="0.390143" x2="41.8385" y2="10.9316" gradientUnits="userSpaceOnUse">
<stop stop-color="#215020"/>
<stop offset="0.36" stop-color="#60B158"/>
<stop offset="0.73" stop-color="#9FDBB5"/>
<stop offset="1" stop-color="#D0FCFD"/>
</linearGradient>
<linearGradient id="paint1_linear_247_558" x1="5.4452" y1="14.6209" x2="32.1784" y2="36.7267" gradientUnits="userSpaceOnUse">
<stop offset="0.22" stop-color="#215020"/>
<stop offset="0.63" stop-color="#60B158"/>
<stop offset="1" stop-color="#D0FCFD"/>
</linearGradient>
<linearGradient id="paint2_linear_247_558" x1="2.79335" y1="8.46745" x2="47.2996" y2="24.56" gradientUnits="userSpaceOnUse">
<stop stop-color="#215020"/>
<stop offset="0.02" stop-color="#255724"/>
<stop offset="0.18" stop-color="#458740"/>
<stop offset="0.3" stop-color="#58A551"/>
<stop offset="0.37" stop-color="#60B158"/>
<stop offset="0.49" stop-color="#86CB91"/>
<stop offset="0.61" stop-color="#A6E0BF"/>
<stop offset="0.7" stop-color="#BDEFE1"/>
<stop offset="0.79" stop-color="#CAF8F5"/>
<stop offset="0.84" stop-color="#D0FCFD"/>
</linearGradient>
<linearGradient id="paint3_linear_247_558" x1="32.0149" y1="9.29926" x2="62.3022" y2="19.8659" gradientUnits="userSpaceOnUse">
<stop stop-color="#0014BB"/>
<stop offset="0.5" stop-color="#49328B"/>
<stop offset="1" stop-color="#86328A"/>
</linearGradient>
<linearGradient id="paint4_linear_247_558" x1="29.2411" y1="6.47303" x2="64.7754" y2="24.0755" gradientUnits="userSpaceOnUse">
<stop stop-color="#B3E9FB"/>
<stop offset="0.5" stop-color="#3F96E4"/>
<stop offset="1" stop-color="#001DF4"/>
</linearGradient>
<linearGradient id="paint5_linear_247_558" x1="61.2024" y1="17.221" x2="56.6238" y2="17.8791" gradientUnits="userSpaceOnUse">
<stop/>
<stop offset="1" stop-opacity="0"/>
</linearGradient>
<linearGradient id="paint6_linear_247_558" x1="49.6899" y1="2.39179" x2="84.5633" y2="20.4302" gradientUnits="userSpaceOnUse">
<stop stop-color="#ED79B7"/>
<stop offset="0.04" stop-color="#EA70A5"/>
<stop offset="0.13" stop-color="#E45A7B"/>
<stop offset="0.23" stop-color="#DF495A"/>
<stop offset="0.32" stop-color="#DB3C42"/>
<stop offset="0.4" stop-color="#D93533"/>
<stop offset="0.48" stop-color="#D9332F"/>
<stop offset="1" stop-color="#68110A"/>
</linearGradient>
<linearGradient id="paint7_linear_247_558" x1="50.9853" y1="-0.71171" x2="94.1788" y2="26.1186" gradientUnits="userSpaceOnUse">
<stop stop-color="#ED79B7"/>
<stop offset="0.51" stop-color="#D9332F"/>
<stop offset="1" stop-color="#68110A"/>
</linearGradient>
<linearGradient id="paint8_linear_247_558" x1="102.483" y1="13.0059" x2="114.785" y2="23.6936" gradientUnits="userSpaceOnUse">
<stop stop-color="#580C07"/>
<stop offset="0.5" stop-color="#D93832"/>
<stop offset="1" stop-color="#F9EC56"/>
</linearGradient>
<linearGradient id="paint9_linear_247_558" x1="72.9905" y1="5.80174" x2="116.291" y2="32.1497" gradientUnits="userSpaceOnUse">
<stop offset="0.18" stop-color="#580C07"/>
<stop offset="0.23" stop-color="#5E0E09"/>
<stop offset="0.3" stop-color="#71140F"/>
<stop offset="0.38" stop-color="#8F1E19"/>
<stop offset="0.47" stop-color="#B92D27"/>
<stop offset="0.53" stop-color="#D93832"/>
<stop offset="1" stop-color="#F9EC56"/>
</linearGradient>
<linearGradient id="paint10_linear_247_558" x1="103.564" y1="-1.90106" x2="120.812" y2="11.9845" gradientUnits="userSpaceOnUse">
<stop stop-color="#580C07"/>
<stop offset="0.5" stop-color="#D93832"/>
<stop offset="1" stop-color="#F9EC56"/>
</linearGradient>
<linearGradient id="paint11_linear_247_558" x1="72.3343" y1="-2.87394" x2="137.617" y2="31.5909" gradientUnits="userSpaceOnUse">
<stop stop-color="#D93832"/>
<stop offset="0.1" stop-color="#D93C32"/>
<stop offset="0.2" stop-color="#DB4835"/>
<stop offset="0.31" stop-color="#DF5D39"/>
<stop offset="0.41" stop-color="#E47A3F"/>
<stop offset="0.52" stop-color="#EBA046"/>
<stop offset="0.63" stop-color="#F3CD4F"/>
<stop offset="0.69" stop-color="#F9EC56"/>
</linearGradient>
</defs>
</svg>
