<svg preserveAspectRatio="none" width="100%" height="100%" overflow="visible" style="display: block;" viewBox="0 0 28.8001 23.5795" fill="none" xmlns="http://www.w3.org/2000/svg">
<g id="XMLID_826_">
<path id="XMLID_827_" d="M28.1474 2.72123C27.6949 2.9219 27.2298 3.09126 26.7545 3.22876C27.3172 2.59237 27.7462 1.84357 28.0081 1.02417C28.0668 0.840496 28.006 0.639453 27.855 0.519329C27.7042 0.399112 27.4947 0.384712 27.3287 0.483097C26.3193 1.08177 25.2303 1.512 24.0884 1.76358C22.9382 0.639639 21.3759 0 19.7609 0C16.3518 0 13.5783 2.77344 13.5783 6.18243C13.5783 6.45092 13.5953 6.71793 13.6289 6.98121C9.39857 6.60979 5.4657 4.53052 2.76501 1.21768C2.66876 1.0996 2.52048 1.03596 2.36868 1.04813C2.21678 1.06003 2.08031 1.14568 2.00357 1.27733C1.45581 2.21723 1.16623 3.29221 1.16623 4.38596C1.16623 5.87567 1.6981 7.2891 2.63763 8.39353C2.35196 8.29459 2.07473 8.17093 1.81015 8.02405C1.6681 7.94499 1.49474 7.9462 1.35362 8.02712C1.21241 8.10804 1.12387 8.25687 1.12015 8.41954C1.1195 8.44695 1.1195 8.47436 1.1195 8.50213C1.1195 10.7258 2.31628 12.7277 4.14601 13.8189C3.98882 13.8032 3.83172 13.7804 3.67564 13.7506C3.51473 13.7199 3.34927 13.7763 3.24076 13.899C3.13207 14.0216 3.09611 14.1926 3.14619 14.3486C3.82345 16.4631 5.56715 18.0184 7.67513 18.4926C5.92678 19.5876 3.92741 20.1612 1.82854 20.1612C1.3906 20.1612 0.950141 20.1355 0.51907 20.0845C0.304928 20.059 0.100169 20.1855 0.0272403 20.3891C-0.0456887 20.5928 0.0316068 20.82 0.21379 20.9368C2.91012 22.6656 6.02786 23.5794 9.22977 23.5794C15.5243 23.5794 19.462 20.6111 21.6569 18.1211C24.3938 15.0161 25.9635 10.9064 25.9635 6.84567C25.9635 6.67603 25.9609 6.50471 25.9557 6.33396C27.0355 5.5204 27.9652 4.53582 28.7217 3.40416C28.8366 3.23229 28.8242 3.00514 28.691 2.84693C28.5581 2.68862 28.3365 2.63743 28.1474 2.72123Z" fill="var(--fill-0, white)"/>
</g>
</svg>
