<svg preserveAspectRatio="xMidYMid meet" width="165" height="63" overflow="visible" style="display: block;" viewBox="0 0 164.998 63.005" fill="none" xmlns="http://www.w3.org/2000/svg">
<g id="Layer_1-2">
<path id="Vector" d="M60.2657 62.9398L59.7191 61.4629H56.8327L56.2861 62.9398H55.4418L57.9487 56.3901H58.5966L61.0937 62.9398H60.2624H60.2657ZM58.289 57.5051L57.0552 60.8174H59.4966L58.289 57.5051Z" fill="var(--fill-0, #CBCBCB)"/>
<path id="Vector_2" d="M70.7512 61.0587C70.7316 61.2152 70.6956 61.3619 70.6498 61.4988C70.604 61.6357 70.545 61.7629 70.473 61.8835C70.401 62.0041 70.3127 62.1182 70.208 62.2291C69.9723 62.4834 69.7072 62.6725 69.4094 62.8061C69.1116 62.9365 68.7942 63.005 68.4538 63.005C68.1331 63.005 67.832 62.9463 67.544 62.829C67.256 62.7116 67.0008 62.5388 66.7782 62.3073C66.6211 62.1541 66.4968 61.9944 66.4117 61.8281C66.3233 61.6618 66.2612 61.476 66.2219 61.2706C66.1826 61.0652 66.1597 60.8337 66.1532 60.5729C66.1466 60.3121 66.1433 60.0122 66.1433 59.6698C66.1433 59.4384 66.1433 59.2264 66.1433 59.0341C66.1433 58.8417 66.1532 58.6657 66.163 58.5059C66.1761 58.3462 66.1924 58.1962 66.2186 58.0593C66.2448 57.9224 66.2808 57.7952 66.3266 57.6779C66.3724 57.5605 66.4346 57.4464 66.5066 57.3355C66.5786 57.2247 66.6702 57.1204 66.775 57.016C66.9975 56.7878 67.2495 56.6183 67.5342 56.5042C67.8189 56.3901 68.1233 56.3314 68.4506 56.3314C68.7778 56.3314 69.0527 56.3803 69.3178 56.4814C69.5796 56.5824 69.812 56.7194 70.0083 56.8987C70.208 57.078 70.3716 57.2899 70.4992 57.5344C70.6269 57.7789 70.7152 58.0463 70.7643 58.3397H70.0116C69.9658 58.1343 69.8971 57.9484 69.8054 57.7822C69.7138 57.6159 69.5992 57.4757 69.4651 57.3616C69.3309 57.2475 69.1804 57.1595 69.0069 57.0975C68.8335 57.0356 68.6502 57.0063 68.4473 57.0063C68.2247 57.0063 68.0186 57.0454 67.8255 57.1236C67.6324 57.2019 67.4688 57.3127 67.3313 57.4562C67.2299 57.5605 67.1513 57.6681 67.0924 57.7854C67.0335 57.9028 66.991 58.043 66.9615 58.2093C66.932 58.3755 66.9124 58.5744 66.9059 58.8091C66.896 59.0439 66.8928 59.3308 66.8928 59.6698C66.8928 59.8915 66.8928 60.0937 66.896 60.273C66.8993 60.4523 66.9059 60.612 66.9157 60.7522C66.9255 60.8924 66.9419 61.0196 66.9615 61.1271C66.9811 61.2347 67.0073 61.3358 67.04 61.4238C67.0728 61.5118 67.112 61.5933 67.1611 61.6683C67.2102 61.7433 67.2659 61.815 67.3346 61.8835C67.472 62.027 67.6357 62.1378 67.8287 62.216C68.0218 62.2943 68.228 62.3334 68.4506 62.3334C68.5684 62.3334 68.6829 62.3204 68.7975 62.2976C68.912 62.2747 69.02 62.2389 69.1247 62.1932C69.2294 62.1476 69.3243 62.0889 69.416 62.0204C69.5076 61.952 69.5894 61.8705 69.6614 61.7792C69.7956 61.6194 69.8938 61.4466 69.9527 61.2608C70.0116 61.075 70.0411 60.8598 70.0411 60.6153V60.1491H68.4309V59.4873H70.7839V60.5501C70.7839 60.7359 70.7741 60.9054 70.7512 61.0619V61.0587Z" fill="var(--fill-0, #CBCBCB)"/>
<path id="Vector_3" d="M75.886 62.9398V56.3901H80.1306V57.0617H76.6518V59.3014H79.6135V59.973H76.6518V62.2649H80.1306V62.9365H75.886V62.9398Z" fill="var(--fill-0, #CBCBCB)"/>
<path id="Vector_4" d="M89.6474 62.9398L85.9854 57.7365V62.9398H85.2196V56.3901H85.8577L89.5198 61.5803V56.3901H90.2856V62.9398H89.6474Z" fill="var(--fill-0, #CBCBCB)"/>
<path id="Vector_5" d="M99.9923 61.0261C99.9399 61.3358 99.8483 61.6129 99.7141 61.8574C99.5799 62.1019 99.413 62.3106 99.2134 62.4801C99.0137 62.6496 98.7879 62.7801 98.5327 62.8681C98.2774 62.9561 98.0025 63.0017 97.7047 63.0017C97.384 63.0017 97.0829 62.9431 96.7949 62.8257C96.5069 62.7083 96.2516 62.5355 96.0291 62.3041C95.872 62.1508 95.7477 61.9911 95.6626 61.8248C95.5775 61.6585 95.512 61.4727 95.4728 61.2673C95.4335 61.0619 95.4106 60.8305 95.404 60.5696C95.3975 60.3088 95.3942 60.0089 95.3942 59.6666C95.3942 59.4351 95.3942 59.2232 95.3942 59.0308C95.3942 58.8385 95.404 58.6624 95.4138 58.5027C95.4269 58.3429 95.4433 58.193 95.4695 58.056C95.4957 57.9191 95.5317 57.792 95.5775 57.6746C95.6233 57.5572 95.6855 57.4431 95.7575 57.3323C95.8295 57.2214 95.9211 57.1171 96.0258 57.0128C96.2484 56.7846 96.5036 56.615 96.7916 56.5009C97.0796 56.3868 97.384 56.3281 97.7014 56.3281C97.9992 56.3281 98.2741 56.3738 98.5294 56.4651C98.7847 56.5563 99.0072 56.6867 99.2036 56.8595C99.3999 57.0323 99.5636 57.241 99.6977 57.4855C99.8319 57.73 99.9268 58.0104 99.9857 58.3201H99.2199C99.1774 58.1212 99.1119 57.9387 99.0236 57.7757C98.9352 57.6126 98.8272 57.4725 98.6963 57.3583C98.5654 57.2442 98.4181 57.1562 98.2512 57.0943C98.0843 57.0323 97.8978 56.9997 97.6981 56.9997C97.4822 56.9997 97.276 57.0389 97.0829 57.1171C96.8898 57.1953 96.7196 57.3029 96.5822 57.4399C96.4807 57.5442 96.4022 57.655 96.3433 57.7724C96.2844 57.8898 96.2418 58.0332 96.2124 58.1995C96.1829 58.3657 96.1633 58.5679 96.1567 58.8059C96.1502 59.0439 96.1436 59.3308 96.1436 59.6698C96.1436 59.8915 96.1436 60.0937 96.1469 60.273C96.1502 60.4523 96.1567 60.612 96.1666 60.7522C96.1764 60.8924 96.1927 61.0195 96.2124 61.1271C96.232 61.2347 96.2582 61.3358 96.2909 61.4238C96.3236 61.5118 96.3629 61.5933 96.412 61.6683C96.4611 61.7433 96.5167 61.815 96.5854 61.8835C96.7229 62.0269 96.8898 62.1378 97.0862 62.216C97.2825 62.2943 97.4887 62.3334 97.7014 62.3334C97.9011 62.3334 98.0876 62.3008 98.2578 62.2389C98.4279 62.1769 98.5785 62.0856 98.7127 61.9715C98.8468 61.8574 98.9581 61.7172 99.0497 61.5575C99.1414 61.3977 99.2068 61.2152 99.2494 61.0163H99.9628L99.989 61.0293L99.9923 61.0261Z" fill="var(--fill-0, #CBCBCB)"/>
<path id="Vector_6" d="M107.889 60.2241V62.9398H107.123V60.2241L105.098 56.3933H105.929L107.503 59.4742L109.077 56.3933H109.908L107.896 60.2241H107.889Z" fill="var(--fill-0, #CBCBCB)"/>
<path id="Vector_7" d="M45.3817 0.5686C41.7654 5.20786 35.8747 6.13375 32.8704 6.31632C31.977 6.37175 31.3421 6.35871 31.0934 6.35871C30.0101 6.35871 20.7224 5.90554 17.021 5.67732C13.3164 5.44911 8.01797 4.76773 4.99732 7.55194C1.97995 10.3329 2.83083 15.0928 2.83083 15.0928C2.74247 15.1058 2.64429 15.0797 2.57557 15.0113C1.08652 13.5703 0 11.5261 0 8.80711C0 3.33977 4.5097 0.0437092 8.80013 0.0437092C10.5477 -0.204066 31.6039 0.676187 38.8201 0.816375C39.7004 0.832676 40.3713 0.839197 40.7804 0.829416C43.2119 0.777253 44.5177 0.610983 45.1363 0.496876C45.2344 0.480575 45.3228 0.509917 45.385 0.5686H45.3817Z" fill="url(#paint0_linear_0_11)"/>
<path id="Vector_8" d="M32.7755 41.641C30.9461 43.3884 29.1298 44.1676 29.1298 44.1676C26.2793 45.5532 23.5565 45.5532 23.5565 45.5532C23.5565 45.5532 20.6831 45.9509 18.0552 44.2524C15.496 42.6288 14.6647 40.3695 14.4487 39.7859C14.2131 39.2023 13.9349 38.3253 13.9447 36.5094C14.02 35.3031 14.1967 33.51 14.4225 31.4626C15.1981 24.476 16.5563 14.4966 16.5596 14.4901C16.5857 14.1738 16.6774 13.1175 15.9378 12.2014C15.365 11.4907 14.704 11.1581 13.9447 10.9853C13.9447 10.9853 19.3086 11.0375 18.798 15.266C18.798 15.266 18.1533 21.2256 17.5839 26.6212C17.165 30.6052 16.7854 34.2827 16.7363 35.0293C16.6217 36.7865 17.0406 41.7551 21.5798 43.4862C26.1124 45.2174 32.8442 41.3475 32.8573 41.3378C32.8868 41.4388 32.8671 41.5562 32.7788 41.641H32.7755Z" fill="url(#paint1_linear_0_11)"/>
<path id="Vector_9" d="M45.4733 0.882001C44.9955 2.48928 43.5621 5.70057 40.3909 8.06747C36.8532 10.7082 33.4006 10.8549 32.0064 10.8549H28.4C28.0858 10.8549 27.8273 11.0897 27.7945 11.3994C27.6178 13.1729 27.0386 18.9565 26.5378 24.0196C26.2498 26.9505 25.988 29.6402 25.844 31.1725C25.4219 35.4303 27.0124 37.3082 28.112 38.5568C29.349 39.9717 30.9592 40.6564 32.0293 40.9726C32.2584 41.0411 32.4613 41.0932 32.6315 41.1291C32.746 41.1552 32.8246 41.2367 32.854 41.3378C32.8377 41.3475 26.1091 45.2141 21.5765 43.4862C17.0374 41.7551 16.6185 36.7865 16.733 35.0293C16.8476 33.2688 18.7948 15.2692 18.7948 15.2692C19.3053 11.0408 13.9414 10.9886 13.9414 10.9886C13.5847 10.9071 12.5146 10.8615 12.3182 10.8582C12.2168 10.8582 12.1153 10.8582 12.0139 10.8582H11.8502C9.95865 10.8452 8.13251 10.9527 6.37838 11.9112C4.56533 12.9317 3.77335 13.8478 3.04028 14.966C2.99119 15.0443 2.91265 15.0867 2.83083 15.0997C2.83083 15.0997 1.97668 10.3398 4.99732 7.55888C8.01797 4.77793 13.3164 5.45931 17.021 5.68427C20.7256 5.91248 30.0134 6.36565 31.0934 6.36565C32.1733 6.36565 40.692 6.59386 45.385 0.575543C45.4701 0.647267 45.5126 0.764634 45.4766 0.888522L45.4733 0.882001Z" fill="url(#paint2_linear_0_11)"/>
<path id="Vector_10" d="M85.7497 8.30546L79.4499 34.074L78.9721 36.0204C78.9721 36.0204 77.4111 43.6199 70.1163 43.6199C62.8216 43.6199 61.3391 36.0204 61.3391 36.0204L54.5844 8.38371C52.7942 1.06783 46.1442 0.480998 46.0951 0.477737C46.1213 0.363631 46.213 0.269085 46.3504 0.249524C47.5515 0.102815 50.2121 -0.0601947 52.7222 0.846139C56.3647 2.07523 60.5079 5.35499 61.8464 10.5746C63.3027 16.1397 66.0648 28.3198 66.2186 28.9653C66.3692 29.6076 67.0761 32.5874 67.0761 32.5874C67.0761 32.5874 67.2168 33.1286 67.4557 33.4709C67.6946 33.81 68.5291 34.8174 70.1589 34.85C71.7887 34.8174 72.6232 33.81 72.8621 33.4709C73.101 33.1318 73.2417 32.5874 73.2417 32.5874C73.2417 32.5874 73.9486 29.6076 74.0991 28.9653C74.1842 28.61 75.0646 24.7336 76.0791 20.4008C76.3867 19.0902 76.7074 17.7405 77.0216 16.4299C77.5518 14.226 78.0623 12.1395 78.4714 10.5778C79.1848 7.78709 80.7033 5.55386 82.5164 3.8879C83.8058 5.07461 84.9447 6.54822 85.753 8.30546H85.7497Z" fill="url(#paint3_linear_0_11)"/>
<path id="Vector_11" d="M88.0079 16.4331C86.5384 23.2013 84.5192 32.3853 83.8352 34.8597C83.4752 36.1638 83.0302 37.2821 82.5164 38.2569C81.4626 40.2651 80.1208 41.6475 78.6448 42.7201C76.4554 44.311 73.6573 45.5564 70.1589 45.5564C66.6604 45.5564 63.8656 44.311 61.6729 42.7201C59.4802 41.1291 57.5854 38.8502 56.4825 34.8597C55.3796 30.8693 50.7979 9.42045 50.6637 8.81079C50.5394 8.22396 49.9863 4.22696 46.1835 0.777675C46.0919 0.69291 46.069 0.578803 46.0951 0.477737C46.1442 0.480998 52.7942 1.06783 54.5844 8.38371L61.3391 36.0204C61.3391 36.0204 62.8216 43.6199 70.1163 43.6199C77.411 43.6199 78.9721 36.0204 78.9721 36.0204L79.4499 34.074L85.7497 8.30546C86.077 9.01619 86.3519 9.77255 86.5581 10.5778C86.9671 12.1427 87.481 14.2292 88.0079 16.4331Z" fill="url(#paint4_linear_0_11)"/>
<path id="Vector_12" d="M88.0079 16.4331C86.5384 23.2013 84.5192 32.3853 83.8352 34.8597C83.4753 36.1638 83.0302 37.2821 82.5164 38.2569C81.4626 40.2652 80.1208 41.6475 78.6448 42.7201C79.7117 39.5023 79.3354 36.1182 79.1554 35.2836C79.1357 35.2053 76.0791 20.404 76.0791 20.404C76.3867 19.0934 76.7074 17.7437 77.0216 16.4331C77.5518 14.2292 78.0623 12.1427 78.4714 10.5811C79.1848 7.79035 80.7033 5.55712 82.5164 3.89116C83.8058 5.07787 84.9447 6.55148 85.753 8.30872C86.0803 9.01945 86.3552 9.77581 86.5613 10.5811C86.9704 12.146 87.4842 14.2325 88.0111 16.4364L88.0079 16.4331Z" fill="url(#paint5_linear_0_11)"/>
<path id="Vector_13" d="M118.839 0.777675C115.037 4.22696 114.487 8.22396 114.359 8.81079C114.228 9.42045 109.643 30.8693 108.54 34.8597C107.438 38.8502 105.543 41.1291 103.35 42.7201C101.272 44.2295 98.6407 45.4293 95.3877 45.5434C95.2142 45.5499 95.0408 45.5532 94.864 45.5532C91.3689 45.5532 88.5708 44.3078 86.3781 42.7168C84.9021 41.6475 83.5603 40.2619 82.5066 38.2536C81.9927 37.2788 81.5477 36.1606 81.1877 34.8565C80.5037 32.382 78.4812 23.1948 77.0118 16.4266C76.1118 12.2764 75.418 9.03575 75.3689 8.80753C75.2446 8.2207 74.6915 4.2237 70.8887 0.774415C70.8036 0.699431 70.7807 0.598365 70.7938 0.503819C71.0196 0.52338 77.519 1.14608 79.2666 8.3022C79.2666 8.3022 85.1116 32.2125 86.0606 36.0888C87.0064 39.9685 89.6933 43.6199 94.8575 43.6199C95.0342 43.6199 95.2109 43.6166 95.3811 43.6069C100.202 43.3786 102.705 39.975 103.654 36.0954L110.759 7.04377C110.759 7.04377 112.248 0.663568 118.918 0.467957C118.947 0.572283 118.925 0.69291 118.83 0.777675H118.839Z" fill="url(#paint6_linear_0_11)"/>
<path id="Vector_14" d="M118.928 0.467957C112.255 0.666829 110.769 7.04377 110.769 7.04377L103.664 36.0954C102.715 39.975 100.212 43.3786 95.3909 43.6069C95.2208 43.6166 95.044 43.6199 94.8673 43.6199C89.7031 43.6199 87.0163 39.9652 86.0705 36.0888C85.1214 32.2092 79.2765 8.3022 79.2765 8.3022C77.5289 1.14608 71.0294 0.52338 70.8036 0.503819C70.8232 0.379932 70.9149 0.269085 71.0621 0.249524C72.2632 0.102815 74.9271 -0.0634549 77.434 0.846139C79.1325 1.41993 80.9324 2.43385 82.5131 3.88464C84.3261 5.5506 85.8414 7.78383 86.5581 10.5746C86.9672 12.1395 87.481 14.226 88.0079 16.4299C89.3627 22.0733 90.8191 28.4991 90.9303 28.9621C91.0809 29.6043 91.7878 32.5841 91.7878 32.5841C91.7878 32.5841 91.9285 33.1253 92.1641 33.4676C92.403 33.8067 93.2408 34.8141 94.8673 34.8467C95.0539 34.8467 95.2273 34.8271 95.3909 34.8011C96.6771 34.5957 97.3611 33.7708 97.5705 33.4676C97.8094 33.1286 97.9501 32.5841 97.9501 32.5841C97.9501 32.5841 98.657 29.6043 98.8076 28.9621C98.9581 28.3198 101.723 16.1397 103.18 10.5713C104.518 5.35173 108.661 2.07197 112.301 0.842879C114.808 -0.0634549 117.471 0.0995548 118.673 0.246264C118.807 0.262565 118.895 0.35385 118.925 0.464697L118.928 0.467957Z" fill="url(#paint7_linear_0_11)"/>
<path id="Vector_15" d="M144.088 26.2463L137.055 26.1876C137.055 26.1876 133.239 25.8486 132.634 29.8977C132.67 29.6565 132.81 29.1935 133.206 28.7925C133.599 28.3915 134.162 28.1764 134.633 28.1829C136.908 28.2057 140.658 28.2448 141.165 28.2448C141.476 28.2448 142.157 28.2872 143.083 28.2546H143.099C145.237 28.1829 148.653 27.733 151.736 25.5519C151.736 25.5519 151.743 25.5486 151.746 25.5454C154.236 23.5371 154.662 22.797 155.624 21.3039C156.383 20.1432 156.867 18.6566 157.077 17.923C157.103 17.8318 157.083 17.7405 157.034 17.672C156.992 17.7666 153.487 25.7312 144.091 26.2528L144.088 26.2463Z" fill="url(#paint8_linear_0_11)"/>
<path id="Vector_16" d="M128.238 43.6231C122.884 42.5571 123.055 37.0702 123.565 34.2892C124.079 31.5083 126.527 19.7585 127.384 11.3016C128.235 2.87072 120.073 0.601625 120.024 0.588584C119.988 0.69291 120.004 0.816798 120.099 0.904823L120.168 0.970027C120.937 1.70031 121.975 2.8479 122.812 4.47474C123.941 6.65907 124.351 8.77167 124.409 10.3594C124.472 11.9471 124.311 12.7785 124.128 13.8771C124.007 14.7052 119.9 33.4187 119.9 36.8387C119.9 39.4077 120.613 41.6573 122.21 43.1635C123.804 44.6697 125.885 45.5825 128.392 45.5825C130.899 45.5825 133.632 45.0381 136.112 43.4406C137.399 42.6125 138.119 41.9963 138.495 41.6246C138.58 41.5399 138.603 41.4258 138.57 41.3247C138.567 41.3247 133.589 44.6958 128.235 43.6264L128.238 43.6231Z" fill="url(#paint9_linear_0_11)"/>
<path id="Vector_17" d="M164.918 0.317988C164.918 0.317988 160.827 8.5728 151.373 8.5728L140.092 8.17506C140.092 8.17506 135.932 7.836 135.212 12.397C135.262 12.159 135.428 11.5787 135.919 11.1842C136.544 10.6789 137.156 10.6919 137.31 10.6952L151.232 11.0082C154.285 11.0082 157.339 10.1149 160.215 7.90446C163.449 5.42671 164.65 1.85354 164.987 0.601625C165.016 0.494038 164.984 0.389712 164.915 0.317988H164.918Z" fill="url(#paint10_linear_0_11)"/>
<path id="Vector_18" d="M140.092 8.17506L151.373 8.5728C160.827 8.5728 164.915 0.327768 164.918 0.317988C164.853 0.249524 164.755 0.210401 164.65 0.226702C163.177 0.464697 158.121 1.14608 149.717 0.917864C143.594 0.751594 124.416 0.441875 120.312 0.376671C120.168 0.376671 120.063 0.467957 120.021 0.582064C120.07 0.595104 128.235 2.8642 127.381 11.2951C126.527 19.752 124.076 31.5017 123.562 34.2827C123.048 37.0636 122.878 42.5506 128.235 43.6166C133.589 44.6827 138.567 41.3149 138.57 41.3149C138.541 41.2171 138.462 41.1324 138.344 41.1063C136.427 40.6759 134.617 39.7598 133.052 37.644C131.55 35.6129 132.3 32.1603 132.395 31.5246C132.408 31.4235 132.431 31.2703 132.46 31.0812C132.46 31.0747 132.565 30.3607 132.617 30.0151C132.624 29.9727 132.63 29.9303 132.637 29.888C133.239 25.8421 137.058 26.1779 137.058 26.1779L144.091 26.2365C153.487 25.7149 156.992 17.7502 157.034 17.6557C156.972 17.5677 156.864 17.509 156.743 17.5253C151.307 18.2751 138.23 17.6557 135.134 17.4927C134.777 17.4731 134.515 17.1536 134.564 16.8015L135.134 12.9252L135.212 12.3872C135.929 7.82296 140.092 8.16528 140.092 8.16528V8.17506Z" fill="url(#paint11_linear_0_11)"/>
</g>
<defs>
<linearGradient id="paint0_linear_0_11" x1="-10.5248" y1="0.522958" x2="56.1203" y2="14.674" gradientUnits="userSpaceOnUse">
<stop stop-color="#215020"/>
<stop offset="0.36" stop-color="#60B158"/>
<stop offset="0.73" stop-color="#9FDBB5"/>
<stop offset="1" stop-color="#D0FCFD"/>
</linearGradient>
<linearGradient id="paint1_linear_0_11" x1="7.30454" y1="19.5988" x2="43.1436" y2="49.2572" gradientUnits="userSpaceOnUse">
<stop offset="0.22" stop-color="#215020"/>
<stop offset="0.63" stop-color="#60B158"/>
<stop offset="1" stop-color="#D0FCFD"/>
</linearGradient>
<linearGradient id="paint2_linear_0_11" x1="3.74717" y1="11.3505" x2="63.44" y2="32.951" gradientUnits="userSpaceOnUse">
<stop stop-color="#215020"/>
<stop offset="0.02" stop-color="#255724"/>
<stop offset="0.18" stop-color="#458740"/>
<stop offset="0.3" stop-color="#58A551"/>
<stop offset="0.37" stop-color="#60B158"/>
<stop offset="0.49" stop-color="#86CB91"/>
<stop offset="0.61" stop-color="#A6E0BF"/>
<stop offset="0.7" stop-color="#BDEFE1"/>
<stop offset="0.79" stop-color="#CAF8F5"/>
<stop offset="0.84" stop-color="#D0FCFD"/>
</linearGradient>
<linearGradient id="paint3_linear_0_11" x1="42.9469" y1="12.4655" x2="83.5693" y2="26.6488" gradientUnits="userSpaceOnUse">
<stop stop-color="#0014BB"/>
<stop offset="0.5" stop-color="#49328B"/>
<stop offset="1" stop-color="#86328A"/>
</linearGradient>
<linearGradient id="paint4_linear_0_11" x1="39.2259" y1="8.67712" x2="86.8793" y2="32.3012" gradientUnits="userSpaceOnUse">
<stop stop-color="#B3E9FB"/>
<stop offset="0.5" stop-color="#3F96E4"/>
<stop offset="1" stop-color="#001DF4"/>
</linearGradient>
<linearGradient id="paint5_linear_0_11" x1="82.1007" y1="23.0839" x2="75.9589" y2="23.9675" gradientUnits="userSpaceOnUse">
<stop/>
<stop offset="1" stop-opacity="0"/>
</linearGradient>
<linearGradient id="paint6_linear_0_11" x1="66.6572" y1="3.20652" x2="113.423" y2="27.4152" gradientUnits="userSpaceOnUse">
<stop stop-color="#ED79B7"/>
<stop offset="0.04" stop-color="#EA70A5"/>
<stop offset="0.13" stop-color="#E45A7B"/>
<stop offset="0.23" stop-color="#DF495A"/>
<stop offset="0.32" stop-color="#DB3C42"/>
<stop offset="0.4" stop-color="#D93533"/>
<stop offset="0.48" stop-color="#D9332F"/>
<stop offset="1" stop-color="#68110A"/>
</linearGradient>
<linearGradient id="paint7_linear_0_11" x1="68.3949" y1="-0.953487" x2="126.312" y2="35.0508" gradientUnits="userSpaceOnUse">
<stop stop-color="#ED79B7"/>
<stop offset="0.51" stop-color="#D9332F"/>
<stop offset="1" stop-color="#68110A"/>
</linearGradient>
<linearGradient id="paint8_linear_0_11" x1="137.477" y1="17.434" x2="153.969" y2="31.7726" gradientUnits="userSpaceOnUse">
<stop stop-color="#580C07"/>
<stop offset="0.5" stop-color="#D93832"/>
<stop offset="1" stop-color="#F9EC56"/>
</linearGradient>
<linearGradient id="paint9_linear_0_11" x1="97.9141" y1="7.77731" x2="155.976" y2="43.1347" gradientUnits="userSpaceOnUse">
<stop offset="0.18" stop-color="#580C07"/>
<stop offset="0.23" stop-color="#5E0E09"/>
<stop offset="0.3" stop-color="#71140F"/>
<stop offset="0.38" stop-color="#8F1E19"/>
<stop offset="0.47" stop-color="#B92D27"/>
<stop offset="0.53" stop-color="#D93832"/>
<stop offset="1" stop-color="#F9EC56"/>
</linearGradient>
<linearGradient id="paint10_linear_0_11" x1="138.927" y1="-2.54772" x2="162.051" y2="16.0823" gradientUnits="userSpaceOnUse">
<stop stop-color="#580C07"/>
<stop offset="0.5" stop-color="#D93832"/>
<stop offset="1" stop-color="#F9EC56"/>
</linearGradient>
<linearGradient id="paint11_linear_0_11" x1="97.0338" y1="-3.8518" x2="184.579" y2="42.4017" gradientUnits="userSpaceOnUse">
<stop stop-color="#D93832"/>
<stop offset="0.1" stop-color="#D93C32"/>
<stop offset="0.2" stop-color="#DB4835"/>
<stop offset="0.31" stop-color="#DF5D39"/>
<stop offset="0.41" stop-color="#E47A3F"/>
<stop offset="0.52" stop-color="#EBA046"/>
<stop offset="0.63" stop-color="#F3CD4F"/>
<stop offset="0.69" stop-color="#F9EC56"/>
</linearGradient>
</defs>
</svg>
