<svg preserveAspectRatio="none" width="100%" height="100%" overflow="visible" style="display: block;" viewBox="0 0 18 17" fill="none" xmlns="http://www.w3.org/2000/svg">
<g id="Group">
<path id="Vector" d="M0 1.97474C0 1.40234 0.20271 0.93012 0.60811 0.55808C1.01351 0.18602 1.54055 0 2.18919 0C2.82626 0 3.34169 0.18315 3.73552 0.54949C4.14092 0.92727 4.34363 1.41951 4.34363 2.02625C4.34363 2.57575 4.14672 3.03365 3.7529 3.39999C3.3475 3.77777 2.81467 3.96666 2.15444 3.96666H2.13707C1.49999 3.96666 0.98456 3.77777 0.59073 3.39999C0.19691 3.02221 0 2.54712 0 1.97474ZM0.22587 17V5.52928H4.08301V17H0.22587ZM6.22008 17H10.0772V10.5949C10.0772 10.1943 10.1236 9.88519 10.2162 9.66769C10.3784 9.27839 10.6245 8.94929 10.9546 8.68029C11.2847 8.41129 11.6988 8.27679 12.1969 8.27679C13.4942 8.27679 14.1429 9.14109 14.1429 10.8697V17H18V10.4232C18 8.72889 17.5946 7.44389 16.7838 6.56817C15.973 5.69241 14.9016 5.25453 13.5695 5.25453C12.0753 5.25453 10.9112 5.88988 10.0772 7.16059V7.19489H10.0598L10.0772 7.16059V5.52928H6.22008C6.24324 5.8956 6.25483 7.03469 6.25483 8.94649C6.25483 10.8582 6.24324 13.5427 6.22008 17Z" fill="var(--fill-0, white)"/>
</g>
</svg>
