<svg preserveAspectRatio="none" width="100%" height="100%" overflow="visible" style="display: block;" viewBox="0 0 78.8876 10.8079" fill="none" xmlns="http://www.w3.org/2000/svg">
<path id="Vector" d="M4.0392 0.844555C3.56592 0.844555 3.13752 0.913918 2.754 1.05264C2.37048 1.19136 2.04408 1.40352 1.7748 1.68912C1.50552 1.96656 1.29744 2.32152 1.15056 2.754C1.00368 3.18648 0.930243 3.6924 0.930243 4.27176C0.930243 4.77768 0.991443 5.23872 1.11384 5.65488C1.23624 6.06288 1.4076 6.41376 1.62792 6.70752C1.8564 7.00128 2.12568 7.22975 2.43576 7.39295C2.74584 7.55615 3.08856 7.63776 3.46392 7.63776C3.75768 7.63776 4.03104 7.59287 4.284 7.50311C4.53696 7.41335 4.75728 7.2828 4.94496 7.11144C5.13264 6.93192 5.27952 6.7116 5.3856 6.45048C5.49168 6.1812 5.54472 5.87111 5.54472 5.52023V4.62672H3.84336V3.80663H6.426V8.35992H5.70384L5.54472 7.29504C5.3652 7.6296 5.1 7.91112 4.74912 8.1396C4.39824 8.35992 3.94944 8.47007 3.40272 8.47007C2.87232 8.47007 2.39496 8.37216 1.97064 8.17632C1.55448 7.97232 1.19952 7.68671 0.905761 7.31951C0.612001 6.95231 0.387601 6.51168 0.232561 5.9976C0.0775207 5.48352 0 4.90824 0 4.27176C0 3.59448 0.0897638 2.99063 0.269284 2.46023C0.456964 1.92983 0.722163 1.48512 1.06488 1.12608C1.4076 0.758876 1.82784 0.481434 2.3256 0.293754C2.82336 0.0979143 3.3864 0 4.01472 0C4.45536 0 4.83888 0.040795 5.16528 0.122395C5.49984 0.203995 5.80584 0.305998 6.08328 0.428398L5.85072 1.21176C5.61408 1.09752 5.33664 1.00776 5.0184 0.942476C4.70832 0.877196 4.38192 0.844555 4.0392 0.844555ZM8.73426 5.39784C8.73426 5.7324 8.77098 6.04656 8.84442 6.34032C8.91786 6.62592 9.02802 6.8748 9.1749 7.08696C9.32994 7.29096 9.5217 7.45415 9.75018 7.57655C9.98682 7.69079 10.2683 7.74792 10.5947 7.74792C10.9211 7.74792 11.1986 7.69079 11.4271 7.57655C11.6637 7.45415 11.8555 7.29096 12.0023 7.08696C12.1574 6.8748 12.2716 6.62592 12.3451 6.34032C12.4185 6.04656 12.4552 5.7324 12.4552 5.39784C12.4552 5.06328 12.4185 4.75728 12.3451 4.47984C12.2716 4.19424 12.1574 3.94944 12.0023 3.74544C11.8555 3.53328 11.6637 3.37007 11.4271 3.25583C11.1986 3.13343 10.9211 3.07223 10.5947 3.07223C10.2683 3.07223 9.98682 3.13343 9.75018 3.25583C9.5217 3.37007 9.32994 3.53328 9.1749 3.74544C9.02802 3.94944 8.91786 4.19424 8.84442 4.47984C8.77098 4.75728 8.73426 5.06328 8.73426 5.39784ZM7.84074 5.39784C7.84074 4.96536 7.89378 4.56552 7.99986 4.19832C8.1141 3.82296 8.28138 3.49656 8.5017 3.21912C8.73018 2.94168 9.01578 2.72544 9.3585 2.5704C9.70938 2.41536 10.1215 2.33784 10.5947 2.33784C11.068 2.33784 11.476 2.41536 11.8187 2.5704C12.1615 2.72544 12.4471 2.94168 12.6755 3.21912C12.904 3.49656 13.0713 3.82296 13.1774 4.19832C13.2916 4.56552 13.3487 4.96536 13.3487 5.39784C13.3487 5.83032 13.2916 6.23424 13.1774 6.6096C13.0713 6.98496 12.904 7.31135 12.6755 7.58879C12.4471 7.86623 12.1615 8.08248 11.8187 8.23752C11.476 8.39256 11.068 8.47007 10.5947 8.47007C10.1215 8.47007 9.70938 8.39256 9.3585 8.23752C9.01578 8.08248 8.73018 7.86623 8.5017 7.58879C8.28138 7.31135 8.1141 6.98496 7.99986 6.6096C7.89378 6.23424 7.84074 5.83032 7.84074 5.39784ZM15.3204 5.39784C15.3204 5.7324 15.3571 6.04656 15.4306 6.34032C15.504 6.62592 15.6142 6.8748 15.761 7.08696C15.9161 7.29096 16.1078 7.45415 16.3363 7.57655C16.573 7.69079 16.8545 7.74792 17.1809 7.74792C17.5073 7.74792 17.7847 7.69079 18.0132 7.57655C18.2498 7.45415 18.4416 7.29096 18.5885 7.08696C18.7435 6.8748 18.8578 6.62592 18.9312 6.34032C19.0046 6.04656 19.0414 5.7324 19.0414 5.39784C19.0414 5.06328 19.0046 4.75728 18.9312 4.47984C18.8578 4.19424 18.7435 3.94944 18.5885 3.74544C18.4416 3.53328 18.2498 3.37007 18.0132 3.25583C17.7847 3.13343 17.5073 3.07223 17.1809 3.07223C16.8545 3.07223 16.573 3.13343 16.3363 3.25583C16.1078 3.37007 15.9161 3.53328 15.761 3.74544C15.6142 3.94944 15.504 4.19424 15.4306 4.47984C15.3571 4.75728 15.3204 5.06328 15.3204 5.39784ZM14.4269 5.39784C14.4269 4.96536 14.4799 4.56552 14.586 4.19832C14.7002 3.82296 14.8675 3.49656 15.0878 3.21912C15.3163 2.94168 15.6019 2.72544 15.9446 2.5704C16.2955 2.41536 16.7076 2.33784 17.1809 2.33784C17.6542 2.33784 18.0622 2.41536 18.4049 2.5704C18.7476 2.72544 19.0332 2.94168 19.2617 3.21912C19.4902 3.49656 19.6574 3.82296 19.7635 4.19832C19.8778 4.56552 19.9349 4.96536 19.9349 5.39784C19.9349 5.83032 19.8778 6.23424 19.7635 6.6096C19.6574 6.98496 19.4902 7.31135 19.2617 7.58879C19.0332 7.86623 18.7476 8.08248 18.4049 8.23752C18.0622 8.39256 17.6542 8.47007 17.1809 8.47007C16.7076 8.47007 16.2955 8.39256 15.9446 8.23752C15.6019 8.08248 15.3163 7.86623 15.0878 7.58879C14.8675 7.31135 14.7002 6.98496 14.586 6.6096C14.4799 6.23424 14.4269 5.83032 14.4269 5.39784ZM25.4194 4.24727C25.2317 3.93719 24.9829 3.68016 24.6728 3.47616C24.3709 3.264 24.0526 3.15792 23.7181 3.15792C23.204 3.15792 22.7756 3.34151 22.4329 3.70871C22.0901 4.06775 21.9188 4.61856 21.9188 5.36112C21.9188 5.76096 21.9637 6.10368 22.0534 6.38928C22.1513 6.66672 22.2778 6.8952 22.4329 7.07472C22.5961 7.24608 22.7797 7.37256 22.9837 7.45416C23.1877 7.53576 23.3998 7.57655 23.6201 7.57655C23.8894 7.57655 24.1342 7.52352 24.3545 7.41744C24.5749 7.31136 24.7625 7.16448 24.9176 6.9768C25.0808 6.78096 25.2032 6.55656 25.2848 6.3036C25.3745 6.04248 25.4194 5.76096 25.4194 5.45904V4.24727ZM25.4194 7.23384C25.2562 7.55208 25.0033 7.82544 24.6605 8.05392C24.326 8.27424 23.9384 8.38439 23.4977 8.38439C23.1387 8.38439 22.8082 8.31912 22.5063 8.18856C22.2044 8.058 21.9433 7.86624 21.7229 7.61328C21.5108 7.36032 21.3435 7.04615 21.2211 6.67079C21.0987 6.28727 21.0375 5.85072 21.0375 5.36112C21.0375 4.9368 21.0946 4.54104 21.2089 4.17384C21.3231 3.80664 21.4904 3.4884 21.7107 3.21912C21.931 2.94168 22.1962 2.72544 22.5063 2.5704C22.8245 2.41536 23.1795 2.33784 23.5712 2.33784C23.7997 2.33784 24.0118 2.37455 24.2077 2.44799C24.4035 2.51327 24.5749 2.59896 24.7217 2.70504C24.8768 2.80296 25.0114 2.9172 25.1257 3.04776C25.2481 3.17016 25.346 3.28848 25.4194 3.40272L25.5785 2.44799H26.3252V7.91928C26.3252 8.43336 26.2599 8.86992 26.1293 9.22896C25.9988 9.59616 25.8152 9.894 25.5785 10.1225C25.3419 10.3591 25.0563 10.5305 24.7217 10.6366C24.3953 10.7508 24.0322 10.8079 23.6324 10.8079C23.2081 10.8079 22.8041 10.7508 22.4206 10.6366C22.0371 10.5305 21.7311 10.4081 21.5026 10.2694L21.7229 9.53496C21.9596 9.67368 22.2329 9.78384 22.543 9.86544C22.8531 9.9552 23.1836 10.0001 23.5345 10.0001C23.8119 10.0001 24.0649 9.96744 24.2933 9.90216C24.53 9.84504 24.7299 9.73487 24.8931 9.57167C25.0563 9.41663 25.1828 9.20447 25.2725 8.93519C25.3705 8.66591 25.4194 8.3232 25.4194 7.90704V7.23384ZM29.1369 8.35992H28.2312V0.110154H29.1369V8.35992ZM31.5527 5.814C31.6016 6.426 31.7934 6.89928 32.128 7.23384C32.4707 7.5684 32.9603 7.73568 33.5968 7.73568C33.866 7.73568 34.1394 7.70712 34.4168 7.65C34.6943 7.59288 34.9432 7.50719 35.1635 7.39295L35.3838 8.06616C35.1308 8.19672 34.8493 8.29464 34.5392 8.35992C34.2373 8.43336 33.8987 8.47007 33.5233 8.47007C33.0419 8.47007 32.6216 8.39664 32.2626 8.24976C31.9117 8.10288 31.618 7.89888 31.3813 7.63776C31.1528 7.36848 30.9774 7.04615 30.855 6.67079C30.7408 6.28727 30.6836 5.86296 30.6836 5.39784C30.6836 4.96536 30.7367 4.56144 30.8428 4.18608C30.9488 3.81072 31.108 3.4884 31.3201 3.21912C31.5404 2.94168 31.8179 2.72544 32.1524 2.5704C32.4952 2.41536 32.8991 2.33784 33.3642 2.33784C34.1312 2.33784 34.7106 2.55815 35.1023 2.99879C35.494 3.43127 35.6898 4.02695 35.6898 4.78583C35.6898 4.98167 35.6776 5.16527 35.6531 5.33663C35.6286 5.50799 35.596 5.66712 35.5552 5.814H31.5527ZM33.3642 3.03552C33.0541 3.03552 32.7889 3.08856 32.5686 3.19464C32.3483 3.30072 32.1647 3.4476 32.0178 3.63528C31.8709 3.82296 31.7608 4.04736 31.6873 4.30848C31.6139 4.56144 31.569 4.83887 31.5527 5.14079H34.833C34.8412 5.12447 34.8452 5.06735 34.8452 4.96943C34.8452 4.87151 34.8452 4.81031 34.8452 4.78583C34.8452 4.22279 34.731 3.79032 34.5025 3.4884C34.274 3.18648 33.8946 3.03552 33.3642 3.03552ZM45.7537 2.72951C45.7537 3.10487 45.6844 3.45576 45.5457 3.78216C45.4151 4.1004 45.2233 4.38192 44.9704 4.62672C44.7256 4.86336 44.4237 5.05104 44.0646 5.18976C43.7137 5.32848 43.318 5.39784 42.8773 5.39784H41.433V8.35992H40.1111V0.110154H42.9508C43.3914 0.110154 43.7831 0.179516 44.1258 0.318236C44.4767 0.448796 44.7705 0.632397 45.0071 0.869037C45.2519 1.10568 45.4355 1.38312 45.5579 1.70136C45.6885 2.0196 45.7537 2.36231 45.7537 2.72951ZM44.4318 2.72951C44.4318 2.28887 44.3053 1.938 44.0524 1.67688C43.7994 1.41576 43.4322 1.28519 42.9508 1.28519H41.433V4.2228H42.8773C43.3669 4.2228 43.7464 4.09224 44.0157 3.83112C44.2931 3.56184 44.4318 3.19463 44.4318 2.72951ZM49.9882 5.55696H48.9478C48.499 5.55696 48.1522 5.65488 47.9074 5.85072C47.6707 6.04656 47.5524 6.31991 47.5524 6.67079C47.5524 6.93191 47.6299 7.14 47.785 7.29504C47.9482 7.45008 48.1522 7.5276 48.397 7.5276C48.6336 7.5276 48.8498 7.48271 49.0457 7.39295C49.2415 7.30319 49.4088 7.18487 49.5475 7.03799C49.6862 6.89111 49.7923 6.72384 49.8658 6.53616C49.9474 6.34032 49.9882 6.14448 49.9882 5.94864V5.55696ZM46.3162 6.69528C46.3162 5.98536 46.5528 5.47127 47.0261 5.15303C47.4994 4.82663 48.144 4.66344 48.96 4.66344H49.9882V4.4676C49.9882 4.07592 49.8821 3.79031 49.6699 3.61079C49.4578 3.42311 49.1599 3.32928 48.7764 3.32928C48.4337 3.32928 48.1154 3.37007 47.8217 3.45167C47.5279 3.53327 47.2505 3.64344 46.9894 3.78216L46.6956 2.8764C46.9322 2.72952 47.2423 2.59896 47.6258 2.48472C48.0094 2.37048 48.4296 2.31336 48.8866 2.31336C49.6863 2.31336 50.2778 2.50919 50.6614 2.90087C51.0449 3.29255 51.2366 3.83111 51.2366 4.51655V8.35992H50.1718L49.9882 7.47864C49.9066 7.6092 49.8127 7.73567 49.7066 7.85807C49.6087 7.98047 49.4863 8.09064 49.3395 8.18856C49.2007 8.27832 49.0334 8.35176 48.8376 8.40888C48.6418 8.466 48.4092 8.49456 48.1399 8.49456C47.887 8.49456 47.6503 8.45376 47.43 8.37216C47.2097 8.29872 47.0138 8.18447 46.8425 8.02943C46.6793 7.87439 46.5487 7.68672 46.4508 7.4664C46.361 7.23792 46.3162 6.98088 46.3162 6.69528ZM54.2208 3.39048C54.2942 3.26808 54.3758 3.1416 54.4656 3.01104C54.5635 2.88048 54.6736 2.76624 54.796 2.66832C54.9184 2.56224 55.0572 2.47656 55.2122 2.41128C55.3754 2.346 55.5549 2.31336 55.7508 2.31336C55.9711 2.31336 56.1506 2.346 56.2893 2.41128C56.428 2.47656 56.526 2.5296 56.5831 2.5704L56.2648 3.79439C56.0772 3.63119 55.8283 3.5496 55.5182 3.5496C55.2326 3.5496 54.9756 3.61896 54.7471 3.75768C54.5268 3.88824 54.3513 4.08816 54.2208 4.35744V8.35992H52.9233V2.44799H54.0249L54.2208 3.39048ZM59.1253 6.63408C59.1253 6.90336 59.1702 7.10736 59.26 7.24608C59.3579 7.3848 59.5333 7.45416 59.7863 7.45416C60.1045 7.45416 60.3942 7.37255 60.6553 7.20935L60.9368 8.15184C60.7492 8.26608 60.5452 8.35176 60.3248 8.40888C60.1127 8.466 59.8597 8.49456 59.566 8.49456C58.9784 8.49456 58.546 8.34768 58.2685 8.05392C57.9992 7.752 57.8646 7.27872 57.8646 6.63408V3.41496H56.9588V2.44799H57.8768L58.1828 0.758876H59.1253V2.44799H60.8756V3.41496H59.1253V6.63408ZM63.3889 8.35992H62.0915V2.44799H63.2176L63.3889 3.28032C63.4705 3.17424 63.5766 3.06408 63.7072 2.94984C63.8377 2.8356 63.9887 2.7336 64.1601 2.64384C64.3314 2.54592 64.5191 2.4684 64.7231 2.41128C64.9271 2.346 65.1474 2.31336 65.3841 2.31336C65.9961 2.31336 66.4775 2.52144 66.8284 2.9376C67.1793 3.3456 67.3547 3.92088 67.3547 4.66344V8.35992H66.0573V4.68792C66.0573 4.27992 65.9716 3.96576 65.8002 3.74544C65.637 3.51696 65.384 3.40272 65.0413 3.40272C64.6986 3.40272 64.3844 3.4884 64.0988 3.65976C63.8132 3.83112 63.5766 4.0392 63.3889 4.284V8.35992ZM69.9661 5.89968C70.0395 6.43824 70.2313 6.83808 70.5414 7.0992C70.8596 7.35216 71.2635 7.47864 71.7531 7.47864C72.0142 7.47864 72.2754 7.45007 72.5365 7.39295C72.7976 7.33583 73.0465 7.25015 73.2831 7.13591L73.5769 8.06616C73.0465 8.35176 72.3937 8.49456 71.6185 8.49456C71.1289 8.49456 70.7005 8.4252 70.3333 8.28648C69.9661 8.1396 69.6601 7.93151 69.4153 7.66223C69.1705 7.39295 68.9869 7.06655 68.8645 6.68303C68.7421 6.29951 68.6809 5.87112 68.6809 5.39784C68.6809 4.97352 68.7339 4.57368 68.84 4.19832C68.9461 3.82296 69.1093 3.49656 69.3296 3.21912C69.5581 2.93352 69.8478 2.7132 70.1987 2.55816C70.5495 2.39496 70.9698 2.31336 71.4594 2.31336C71.8592 2.31336 72.2101 2.37456 72.512 2.49696C72.8221 2.61936 73.0791 2.79072 73.2831 3.01104C73.4953 3.23136 73.6503 3.49655 73.7483 3.80663C73.8543 4.11671 73.9074 4.45536 73.9074 4.82256C73.9074 5.0184 73.8911 5.21016 73.8584 5.39784C73.8339 5.58552 73.8013 5.7528 73.7605 5.89968H69.9661ZM71.4716 3.28032C70.982 3.28032 70.6107 3.44352 70.3578 3.76992C70.113 4.09632 69.9702 4.52879 69.9294 5.06735H72.6956V4.84704C72.6956 4.34928 72.5977 3.96576 72.4018 3.69648C72.2142 3.41904 71.9041 3.28032 71.4716 3.28032ZM76.5253 3.39048C76.5987 3.26808 76.6803 3.1416 76.7701 3.01104C76.868 2.88048 76.9782 2.76624 77.1006 2.66832C77.223 2.56224 77.3617 2.47656 77.5167 2.41128C77.6799 2.346 77.8595 2.31336 78.0553 2.31336C78.2756 2.31336 78.4551 2.346 78.5939 2.41128C78.7326 2.47656 78.8305 2.5296 78.8876 2.5704L78.5694 3.79439C78.3817 3.63119 78.1328 3.5496 77.8227 3.5496C77.5371 3.5496 77.2801 3.61896 77.0516 3.75768C76.8313 3.88824 76.6559 4.08816 76.5253 4.35744V8.35992H75.2279V2.44799H76.3295L76.5253 3.39048Z" fill="var(--fill-0, white)"/>
</svg>
