<svg preserveAspectRatio="none" width="100%" height="100%" overflow="visible" style="display: block;" viewBox="0 0 28.8 28.8" fill="none" xmlns="http://www.w3.org/2000/svg">
<g id="icons8-instagram">
<path id="Vector" d="M9.59781 2.87979C5.89317 2.87979 2.87969 5.89606 2.87969 9.60166V19.2017C2.87969 22.9063 5.89596 25.9198 9.60156 25.9198H19.2016C22.9062 25.9198 25.9197 22.9035 25.9197 19.1979V9.59791C25.9197 5.89327 22.9034 2.87979 19.1978 2.87979H9.59781ZM21.1197 6.71978C21.6496 6.71978 22.0797 7.14986 22.0797 7.67978C22.0797 8.2097 21.6496 8.63978 21.1197 8.63978C20.5898 8.63978 20.1597 8.2097 20.1597 7.67978C20.1597 7.14986 20.5898 6.71978 21.1197 6.71978ZM14.3997 8.63978C17.5763 8.63978 20.1597 11.2231 20.1597 14.3998C20.1597 17.5764 17.5763 20.1598 14.3997 20.1598C11.223 20.1598 8.63969 17.5764 8.63969 14.3998C8.63969 11.2231 11.223 8.63978 14.3997 8.63978ZM14.3997 10.5598C13.3813 10.5598 12.4045 10.9644 11.6844 11.6845C10.9643 12.4046 10.5597 13.3814 10.5597 14.3998C10.5597 15.4182 10.9643 16.3949 11.6844 17.1151C12.4045 17.8352 13.3813 18.2398 14.3997 18.2398C15.4181 18.2398 16.3948 17.8352 17.115 17.1151C17.8351 16.3949 18.2397 15.4182 18.2397 14.3998C18.2397 13.3814 17.8351 12.4046 17.115 11.6845C16.3948 10.9644 15.4181 10.5598 14.3997 10.5598V10.5598Z" fill="var(--fill-0, white)"/>
</g>
</svg>
