<svg preserveAspectRatio="none" width="100%" height="100%" overflow="visible" style="display: block;" viewBox="0 0 28.8 28.8" fill="none" xmlns="http://www.w3.org/2000/svg">
<g id="icons8-linkedin">
<path id="Vector" d="M23.0403 3.84014H5.76033C4.69953 3.84014 3.84033 4.69934 3.84033 5.76014V23.0401C3.84033 24.1009 4.69953 24.9601 5.76033 24.9601H23.0403C24.1011 24.9601 24.9603 24.1009 24.9603 23.0401V5.76014C24.9603 4.69934 24.1011 3.84014 23.0403 3.84014ZM10.5162 21.1201H7.68417V12.0078H10.5162V21.1201ZM9.07137 10.7051C8.15841 10.7051 7.42017 9.96494 7.42017 9.0539C7.42017 8.14286 8.15937 7.40366 9.07137 7.40366C9.98145 7.40366 10.7216 8.14382 10.7216 9.0539C10.7216 9.96494 9.98145 10.7051 9.07137 10.7051ZM21.1242 21.1201H18.2941V16.6888C18.2941 15.6318 18.2749 14.2725 16.8224 14.2725C15.3488 14.2725 15.1223 15.4235 15.1223 16.612V21.1201H12.2922V12.0078H15.009V13.2529H15.0474C15.4256 12.5368 16.3491 11.7813 17.7267 11.7813C20.5943 11.7813 21.1242 13.6686 21.1242 16.1224V21.1201V21.1201Z" fill="var(--fill-0, white)"/>
</g>
</svg>
