<svg preserveAspectRatio="none" width="100%" height="100%" overflow="visible" style="display: block;" viewBox="0 0 82.591 10.7222" fill="none" xmlns="http://www.w3.org/2000/svg">
<path id="Vector" d="M7.36848 8.24977H5.9976L5.27544 6.21792H2.0808L1.37088 8.24977H0L3.01104 0H4.35744L7.36848 8.24977ZM4.25952 3.32928L3.69648 1.37088H3.672L3.10896 3.32928L2.49696 5.0796H4.87152L4.25952 3.32928ZM12.1445 4.18608C11.9895 3.93312 11.7855 3.72096 11.5325 3.5496C11.2877 3.37824 11.0144 3.29256 10.7125 3.29256C10.2718 3.29256 9.90869 3.45576 9.62309 3.78216C9.33749 4.1004 9.19469 4.57776 9.19469 5.21424C9.19469 5.57328 9.23141 5.8752 9.30485 6.12C9.38645 6.3648 9.49253 6.56473 9.62309 6.71977C9.76181 6.87481 9.91685 6.98904 10.0882 7.06248C10.2677 7.12776 10.4554 7.1604 10.6512 7.1604C11.0919 7.1604 11.4509 6.9972 11.7284 6.6708C12.0058 6.3444 12.1445 5.89152 12.1445 5.31216V4.18608ZM12.1568 7.23384C12.0017 7.49496 11.7732 7.7316 11.4713 7.94376C11.1694 8.14776 10.8063 8.24977 10.382 8.24977C10.0229 8.24977 9.69245 8.1804 9.39053 8.04168C9.08861 7.90296 8.82749 7.70713 8.60717 7.45417C8.38685 7.19305 8.21141 6.8748 8.08085 6.49944C7.95845 6.12408 7.89725 5.69976 7.89725 5.22648C7.89725 4.82664 7.95029 4.44312 8.05637 4.07592C8.17061 3.70872 8.33381 3.3864 8.54597 3.10896C8.75813 2.83152 9.01925 2.6112 9.32933 2.448C9.63941 2.2848 9.99845 2.2032 10.4064 2.2032C10.6268 2.2032 10.8267 2.23176 11.0062 2.28888C11.1857 2.346 11.3448 2.42352 11.4836 2.52144C11.6304 2.6112 11.7569 2.7132 11.863 2.82744C11.9772 2.94168 12.0711 3.05592 12.1445 3.17016L12.3159 2.33784H13.442V7.76016C13.442 8.29872 13.3685 8.75568 13.2217 9.13104C13.0829 9.5064 12.883 9.8124 12.6219 10.049C12.3689 10.2857 12.067 10.457 11.7161 10.5631C11.3653 10.6692 10.9858 10.7222 10.5778 10.7222C10.129 10.7222 9.70061 10.6651 9.29261 10.5509C8.89277 10.4366 8.56637 10.2979 8.31341 10.1347L8.64389 9.1188C8.90501 9.282 9.19061 9.4044 9.50069 9.486C9.81077 9.5676 10.1209 9.60841 10.4309 9.60841C10.6839 9.60841 10.9124 9.57985 11.1164 9.52273C11.3285 9.46561 11.5121 9.36768 11.6672 9.22896C11.8222 9.0984 11.9405 8.9148 12.0221 8.67816C12.1119 8.44968 12.1568 8.15592 12.1568 7.79688V7.23384ZM16.0793 5.78952C16.1527 6.32808 16.3445 6.72792 16.6546 6.98904C16.9728 7.242 17.3767 7.36849 17.8663 7.36849C18.1274 7.36849 18.3886 7.33992 18.6497 7.2828C18.9108 7.22568 19.1597 7.14 19.3963 7.02576L19.6901 7.956C19.1597 8.2416 18.5069 8.3844 17.7317 8.3844C17.2421 8.3844 16.8137 8.31505 16.4465 8.17633C16.0793 8.02945 15.7733 7.82136 15.5285 7.55208C15.2837 7.2828 15.1001 6.9564 14.9777 6.57288C14.8553 6.18936 14.7941 5.76097 14.7941 5.28769C14.7941 4.86337 14.8471 4.46352 14.9532 4.08816C15.0593 3.7128 15.2225 3.3864 15.4428 3.10896C15.6713 2.82336 15.961 2.60304 16.3118 2.448C16.6627 2.2848 17.083 2.2032 17.5726 2.2032C17.9724 2.2032 18.3233 2.2644 18.6252 2.3868C18.9353 2.5092 19.1923 2.68056 19.3963 2.90088C19.6085 3.1212 19.7635 3.3864 19.8614 3.69648C19.9675 4.00656 20.0206 4.3452 20.0206 4.7124C20.0206 4.90824 20.0042 5.10001 19.9716 5.28769C19.9471 5.47537 19.9145 5.64264 19.8737 5.78952H16.0793ZM17.5848 3.17016C17.0952 3.17016 16.7239 3.33337 16.471 3.65977C16.2262 3.98617 16.0834 4.41864 16.0426 4.9572H18.8088V4.73688C18.8088 4.23912 18.7109 3.85561 18.515 3.58633C18.3274 3.30889 18.0173 3.17016 17.5848 3.17016ZM22.6385 8.24977H21.3411V2.33784H22.4671L22.6385 3.17016C22.7201 3.06408 22.8262 2.95392 22.9567 2.83968C23.0873 2.72544 23.2383 2.62344 23.4096 2.53368C23.581 2.43576 23.7687 2.35824 23.9727 2.30112C24.1767 2.23584 24.397 2.2032 24.6336 2.2032C25.2456 2.2032 25.727 2.41128 26.0779 2.82744C26.4288 3.23544 26.6043 3.81072 26.6043 4.55328V8.24977H25.3068V4.57777C25.3068 4.16977 25.2211 3.8556 25.0498 3.63528C24.8866 3.4068 24.6336 3.29256 24.2909 3.29256C23.9482 3.29256 23.634 3.37824 23.3484 3.5496C23.0628 3.72096 22.8262 3.92904 22.6385 4.17384V8.24977ZM30.9172 7.36849C31.1783 7.36849 31.4395 7.33992 31.7006 7.2828C31.9617 7.21752 32.2106 7.1196 32.4472 6.98904L32.741 7.91928C32.1943 8.22936 31.5619 8.3844 30.8438 8.3844C30.3542 8.3844 29.9258 8.30688 29.5586 8.15184C29.1914 7.98864 28.8854 7.76832 28.6406 7.49088C28.3958 7.20528 28.2122 6.8748 28.0898 6.49944C27.9674 6.12408 27.9062 5.72017 27.9062 5.28769C27.9062 4.86337 27.9674 4.46352 28.0898 4.08816C28.2122 3.7128 28.3958 3.3864 28.6406 3.10896C28.8854 2.82336 29.1914 2.60304 29.5586 2.448C29.9339 2.2848 30.3746 2.2032 30.8805 2.2032C31.2069 2.2032 31.5211 2.23993 31.823 2.31337C32.1249 2.37865 32.4064 2.48472 32.6675 2.6316L32.386 3.56184C31.9454 3.33336 31.4599 3.21913 30.9295 3.21913C30.3256 3.21913 29.885 3.41088 29.6075 3.7944C29.3383 4.17792 29.2036 4.67569 29.2036 5.28769C29.2036 5.90785 29.3423 6.40968 29.6198 6.7932C29.8972 7.17672 30.3297 7.36849 30.9172 7.36849ZM37.8191 7.23384C37.7457 7.34808 37.6478 7.4664 37.5254 7.5888C37.4112 7.7112 37.2724 7.82136 37.1092 7.91928C36.9542 8.0172 36.7788 8.09881 36.5829 8.16409C36.3871 8.22121 36.1708 8.24977 35.9342 8.24977C35.3222 8.24977 34.8367 8.06616 34.4776 7.69896C34.1186 7.33176 33.9391 6.7524 33.9391 5.96088V2.33784H35.2243V5.9364C35.2243 6.35256 35.314 6.66264 35.4936 6.86664C35.6731 7.07064 35.922 7.17265 36.2402 7.17265C36.5911 7.17265 36.893 7.0788 37.146 6.89112C37.4071 6.69528 37.6274 6.47088 37.8069 6.21792V2.33784H39.1044V7.76016C39.1044 8.27424 39.035 8.71896 38.8963 9.09432C38.7575 9.46968 38.5617 9.77568 38.3088 10.0123C38.064 10.2571 37.7661 10.4366 37.4152 10.5509C37.0725 10.6651 36.689 10.7222 36.2647 10.7222C35.8404 10.7222 35.4324 10.6692 35.0407 10.5631C34.6572 10.457 34.343 10.3224 34.0982 10.1592L34.4164 9.14328C34.9468 9.46968 35.518 9.63288 36.13 9.63288C36.6604 9.63288 37.0725 9.49824 37.3663 9.22896C37.6682 8.95968 37.8191 8.48232 37.8191 7.79688V7.23384ZM49.4572 2.61936C49.4572 2.99472 49.3878 3.34561 49.2491 3.67201C49.1185 3.99025 48.9267 4.27176 48.6738 4.51656C48.429 4.7532 48.1271 4.94088 47.768 5.0796C47.4171 5.21832 47.0214 5.28769 46.5808 5.28769H45.1364V8.24977H43.8145V0H46.6542C47.0948 0 47.4865 0.0693624 47.8292 0.208082C48.1801 0.338642 48.4739 0.522243 48.7105 0.758883C48.9553 0.995523 49.1389 1.27297 49.2613 1.59121C49.3919 1.90945 49.4572 2.25216 49.4572 2.61936ZM48.1352 2.61936C48.1352 2.17872 48.0087 1.82784 47.7558 1.56672C47.5028 1.3056 47.1356 1.17504 46.6542 1.17504H45.1364V4.11265H46.5808C47.0704 4.11265 47.4498 3.98208 47.7191 3.72096C47.9965 3.45168 48.1352 3.08448 48.1352 2.61936ZM53.6914 5.4468H52.651C52.2022 5.4468 51.8554 5.54473 51.6106 5.74057C51.3739 5.93641 51.2556 6.20976 51.2556 6.56064C51.2556 6.82176 51.3331 7.02985 51.4882 7.18489C51.6514 7.33993 51.8554 7.41744 52.1002 7.41744C52.3368 7.41744 52.5531 7.37256 52.7489 7.2828C52.9447 7.19304 53.112 7.07472 53.2507 6.92784C53.3895 6.78096 53.4955 6.61368 53.569 6.426C53.6506 6.23016 53.6914 6.03433 53.6914 5.83849V5.4468ZM50.0194 6.58512C50.0194 5.8752 50.256 5.36112 50.7293 5.04288C51.2026 4.71648 51.8472 4.55328 52.6632 4.55328H53.6914V4.35744C53.6914 3.96576 53.5853 3.68016 53.3731 3.50064C53.161 3.31296 52.8631 3.21913 52.4796 3.21913C52.1369 3.21913 51.8187 3.25992 51.5249 3.34152C51.2311 3.42312 50.9537 3.53329 50.6926 3.67201L50.3988 2.76625C50.6354 2.61937 50.9455 2.4888 51.3291 2.37456C51.7126 2.26032 52.1328 2.2032 52.5898 2.2032C53.3895 2.2032 53.9811 2.39904 54.3646 2.79072C54.7481 3.1824 54.9399 3.72096 54.9399 4.4064V8.24977H53.875L53.6914 7.36849C53.6098 7.49905 53.5159 7.62552 53.4099 7.74792C53.3119 7.87032 53.1895 7.98049 53.0427 8.07841C52.9039 8.16817 52.7366 8.2416 52.5408 8.29872C52.345 8.35584 52.1124 8.3844 51.8431 8.3844C51.5902 8.3844 51.3535 8.34361 51.1332 8.26201C50.9129 8.18857 50.7171 8.07432 50.5457 7.91928C50.3825 7.76424 50.2519 7.57657 50.154 7.35625C50.0643 7.12777 50.0194 6.87072 50.0194 6.58512ZM57.9242 3.28032C57.9976 3.15792 58.0792 3.03144 58.169 2.90088C58.2669 2.77032 58.377 2.65608 58.4994 2.55816C58.6218 2.45208 58.7606 2.3664 58.9156 2.30112C59.0788 2.23584 59.2583 2.2032 59.4542 2.2032C59.6745 2.2032 59.854 2.23584 59.9927 2.30112C60.1314 2.3664 60.2294 2.41944 60.2865 2.46024L59.9683 3.68424C59.7806 3.52104 59.5317 3.43944 59.2216 3.43944C58.936 3.43944 58.679 3.5088 58.4505 3.64752C58.2302 3.77808 58.0547 3.978 57.9242 4.24728V8.24977H56.6267V2.33784H57.7283L57.9242 3.28032ZM62.8287 6.52392C62.8287 6.7932 62.8736 6.9972 62.9634 7.13592C63.0613 7.27464 63.2367 7.344 63.4897 7.344C63.8079 7.344 64.0976 7.2624 64.3587 7.0992L64.6403 8.04168C64.4526 8.15592 64.2486 8.2416 64.0283 8.29872C63.8161 8.35584 63.5631 8.3844 63.2694 8.3844C62.6819 8.3844 62.2494 8.23752 61.9719 7.94376C61.7027 7.64184 61.568 7.16856 61.568 6.52392V3.30481H60.6623V2.33784H61.5803L61.8863 0.648722H62.8287V2.33784H64.5791V3.30481H62.8287V6.52392ZM67.0921 8.24977H65.7947V2.33784H66.9208L67.0921 3.17016C67.1737 3.06408 67.2798 2.95392 67.4104 2.83968C67.5409 2.72544 67.6919 2.62344 67.8633 2.53368C68.0346 2.43576 68.2223 2.35824 68.4263 2.30112C68.6303 2.23584 68.8506 2.2032 69.0873 2.2032C69.6993 2.2032 70.1807 2.41128 70.5316 2.82744C70.8825 3.23544 71.0579 3.81072 71.0579 4.55328V8.24977H69.7604V4.57777C69.7604 4.16977 69.6748 3.8556 69.5034 3.63528C69.3402 3.4068 69.0873 3.29256 68.7445 3.29256C68.4018 3.29256 68.0876 3.37824 67.802 3.5496C67.5164 3.72096 67.2798 3.92904 67.0921 4.17384V8.24977ZM73.6695 5.78952C73.7429 6.32808 73.9347 6.72792 74.2448 6.98904C74.563 7.242 74.9669 7.36849 75.4565 7.36849C75.7177 7.36849 75.9788 7.33992 76.2399 7.2828C76.501 7.22568 76.7499 7.14 76.9865 7.02576L77.2803 7.956C76.7499 8.2416 76.0971 8.3844 75.3219 8.3844C74.8323 8.3844 74.4039 8.31505 74.0367 8.17633C73.6695 8.02945 73.3635 7.82136 73.1187 7.55208C72.8739 7.2828 72.6903 6.9564 72.5679 6.57288C72.4455 6.18936 72.3843 5.76097 72.3843 5.28769C72.3843 4.86337 72.4373 4.46352 72.5434 4.08816C72.6495 3.7128 72.8127 3.3864 73.033 3.10896C73.2615 2.82336 73.5512 2.60304 73.9021 2.448C74.2529 2.2848 74.6732 2.2032 75.1628 2.2032C75.5626 2.2032 75.9135 2.2644 76.2154 2.3868C76.5255 2.5092 76.7825 2.68056 76.9865 2.90088C77.1987 3.1212 77.3537 3.3864 77.4517 3.69648C77.5577 4.00656 77.6108 4.3452 77.6108 4.7124C77.6108 4.90824 77.5945 5.10001 77.5618 5.28769C77.5373 5.47537 77.5047 5.64264 77.4639 5.78952H73.6695ZM75.175 3.17016C74.6854 3.17016 74.3141 3.33337 74.0612 3.65977C73.8164 3.98617 73.6736 4.41864 73.6328 4.9572H76.399V4.73688C76.399 4.23912 76.3011 3.85561 76.1053 3.58633C75.9176 3.30889 75.6075 3.17016 75.175 3.17016ZM80.2287 3.28032C80.3021 3.15792 80.3837 3.03144 80.4735 2.90088C80.5714 2.77032 80.6816 2.65608 80.804 2.55816C80.9264 2.45208 81.0651 2.3664 81.2201 2.30112C81.3833 2.23584 81.5629 2.2032 81.7587 2.2032C81.979 2.2032 82.1585 2.23584 82.2973 2.30112C82.436 2.3664 82.5339 2.41944 82.591 2.46024L82.2728 3.68424C82.0851 3.52104 81.8362 3.43944 81.5261 3.43944C81.2405 3.43944 80.9835 3.5088 80.755 3.64752C80.5347 3.77808 80.3593 3.978 80.2287 4.24728V8.24977H78.9313V2.33784H80.0329L80.2287 3.28032Z" fill="var(--fill-0, white)"/>
</svg>
