<svg preserveAspectRatio="none" width="100%" height="100%" overflow="visible" style="display: block;" viewBox="0 0 103.999 40.0002" fill="none" xmlns="http://www.w3.org/2000/svg">
<g id="Layer 1">
<path id="Vector" d="M37.9845 39.9602L37.6417 39.0238H35.8225L35.4786 39.9602H34.947L36.5281 35.8021H36.936L38.5088 39.9602H37.9845ZM36.7399 36.5102L35.964 38.6145H37.5032L36.7399 36.5102Z" fill="var(--fill-0, white)"/>
<path id="Vector_2" d="M44.5944 38.766C44.5819 38.8612 44.5605 38.9549 44.5304 39.0459C44.5028 39.1313 44.4655 39.2132 44.4193 39.29C44.3716 39.3687 44.3157 39.442 44.2525 39.5089C44.1117 39.6644 43.9404 39.7891 43.7493 39.875C43.5638 39.9554 43.3643 39.998 43.1623 40.0001C42.9603 40.0023 42.7599 39.9641 42.5728 39.8876C42.3911 39.8126 42.2271 39.7 42.0916 39.5573C41.9985 39.4687 41.9203 39.3657 41.8598 39.2521C41.8028 39.1408 41.7622 39.0217 41.7392 38.8986C41.7125 38.7524 41.6977 38.6043 41.6952 38.4557C41.6952 38.2915 41.69 38.1 41.69 37.8822C41.69 37.7349 41.69 37.6013 41.69 37.4792C41.69 37.3572 41.6952 37.2457 41.7026 37.1436C41.7089 37.0487 41.7205 36.9542 41.7372 36.8606C41.7525 36.7775 41.7757 36.6962 41.8064 36.6175C41.8369 36.5415 41.8752 36.4689 41.9206 36.4008C41.9701 36.3276 42.0266 36.2596 42.0895 36.1977C42.2242 36.0564 42.3871 35.9453 42.5676 35.8715C42.7513 35.7995 42.9471 35.7638 43.1443 35.7663C43.3307 35.7639 43.516 35.7964 43.6905 35.8621C43.8506 35.9224 43.9981 36.0119 44.1257 36.1262C44.2525 36.2408 44.3573 36.3777 44.435 36.5302C44.5176 36.6889 44.5746 36.8597 44.6038 37.0363H44.1299C44.1049 36.9121 44.0611 36.7925 43.9999 36.6817C43.9459 36.5814 43.875 36.4913 43.7901 36.4155C43.7059 36.3417 43.6084 36.2845 43.5029 36.2472C43.3895 36.208 43.2704 36.1885 43.1506 36.1893C43.0165 36.1882 42.8835 36.2139 42.7595 36.2651C42.6407 36.3116 42.5334 36.3834 42.4449 36.4755C42.3836 36.537 42.3326 36.6081 42.2939 36.6859C42.2541 36.7711 42.2262 36.8614 42.2111 36.9542C42.1904 37.0805 42.1784 37.2082 42.1754 37.3362C42.1702 37.4845 42.167 37.6665 42.167 37.8822C42.167 38.0225 42.167 38.1498 42.167 38.2642C42.167 38.3778 42.1733 38.4746 42.1807 38.5682C42.188 38.6619 42.1964 38.7376 42.2079 38.8071C42.2187 38.8712 42.2352 38.9342 42.2572 38.9954C42.277 39.0494 42.3023 39.1012 42.3327 39.1501C42.3636 39.1987 42.3987 39.2444 42.4376 39.2869C42.5266 39.3783 42.6338 39.4499 42.7521 39.4973C42.8764 39.5476 43.0092 39.5729 43.1432 39.572C43.2165 39.5722 43.2897 39.5645 43.3613 39.5488C43.5028 39.5197 43.636 39.4594 43.7514 39.3721C43.8085 39.3275 43.8603 39.2763 43.9055 39.2195C43.9875 39.123 44.0495 39.011 44.0879 38.8902C44.127 38.7574 44.1457 38.6194 44.1435 38.4809V38.1842H43.1275V37.7633H44.6143V38.4367C44.6146 38.5468 44.6079 38.6568 44.5944 38.766V38.766Z" fill="var(--fill-0, white)"/>
<path id="Vector_3" d="M47.8311 39.9602V35.8021H50.508V36.2293H48.3155V37.6518H50.1819V38.079H48.3155V39.5331H50.508V39.9602H47.8311Z" fill="var(--fill-0, white)"/>
<path id="Vector_4" d="M56.5044 39.9602L54.1977 36.6565V39.9602H53.7133V35.8021H54.1159L56.4226 39.0975V35.8021H56.907V39.9602H56.5044Z" fill="var(--fill-0, white)"/>
<path id="Vector_5" d="M63.0251 38.745C62.9967 38.929 62.9375 39.1069 62.85 39.2711C62.7697 39.4208 62.6632 39.5549 62.5355 39.6667C62.4085 39.7746 62.2627 39.858 62.1056 39.9129C61.9369 39.9709 61.7596 39.9997 61.5813 39.9981C61.3846 39.9994 61.1896 39.9611 61.0078 39.8855C60.8261 39.8105 60.6621 39.6979 60.5265 39.5552C60.4332 39.4669 60.3549 39.3638 60.2948 39.25C60.2373 39.1389 60.1967 39.0197 60.1742 38.8965C60.1474 38.7503 60.1327 38.6022 60.1302 38.4536C60.1302 38.2894 60.1239 38.0979 60.1239 37.8801C60.1239 37.7328 60.1239 37.5992 60.1239 37.4771C60.1239 37.3551 60.1302 37.2436 60.1375 37.1415C60.1439 37.0466 60.1554 36.9521 60.1721 36.8585C60.187 36.7753 60.2101 36.6939 60.2413 36.6154C60.2719 36.5394 60.3102 36.4668 60.3556 36.3987C60.4047 36.3253 60.4613 36.2572 60.5244 36.1956C60.6599 36.0538 60.824 35.9426 61.0057 35.8694C61.3567 35.7316 61.7452 35.7238 62.1014 35.8474C62.2576 35.9035 62.402 35.9884 62.5271 36.0978C62.655 36.2106 62.7615 36.3457 62.8416 36.4965C62.9288 36.6616 62.9903 36.839 63.0241 37.0226H62.5418C62.5174 36.9018 62.4757 36.7852 62.418 36.6765C62.364 36.5768 62.293 36.4875 62.2083 36.4124C62.1261 36.3387 62.0308 36.2812 61.9273 36.243C61.8153 36.2028 61.6971 36.1828 61.5782 36.184C61.445 36.1839 61.3129 36.2093 61.1892 36.2587C61.0718 36.305 60.9648 36.3744 60.8746 36.4629C60.8134 36.5245 60.7624 36.5955 60.7236 36.6733C60.6837 36.7599 60.6558 36.8516 60.6408 36.9458C60.6201 37.0728 60.6082 37.2012 60.6052 37.3298C60.6052 37.4793 60.5968 37.6613 60.5968 37.877C60.5968 38.0173 60.5968 38.1446 60.5968 38.2589C60.5968 38.3725 60.6031 38.4693 60.6093 38.563C60.6156 38.6566 60.6261 38.7324 60.6377 38.8018C60.6484 38.866 60.6649 38.929 60.6869 38.9902C60.7068 39.0442 60.7321 39.096 60.7624 39.1448C60.8636 39.3011 61.0099 39.4227 61.1818 39.4931C61.3056 39.5426 61.4376 39.5679 61.5708 39.5678C61.6905 39.569 61.8095 39.5487 61.9221 39.5078C62.0268 39.469 62.1238 39.4116 62.2083 39.3384C62.2933 39.2636 62.3643 39.1742 62.418 39.0743C62.4773 38.9672 62.5198 38.8515 62.5439 38.7313H62.9937L63.0251 38.745Z" fill="var(--fill-0, white)"/>
<path id="Vector_6" d="M68.0035 38.2357V39.9602H67.5243V38.2357L66.2462 35.8021H66.7704L67.7613 37.7581L68.7532 35.8021H69.2774L68.0035 38.2357Z" fill="var(--fill-0, white)"/>
<path id="Vector_7" d="M28.6035 0.361121C26.325 3.30717 22.6123 3.89428 20.7176 4.01001C20.1556 4.04473 19.754 4.03632 19.5978 4.03632C18.9152 4.03632 13.0613 3.74908 10.7273 3.60493C8.39335 3.46079 5.05174 3.0273 3.14554 4.79387C1.23934 6.56045 1.78247 9.5812 1.78247 9.5812C1.75341 9.58609 1.72361 9.58396 1.69553 9.57499C1.66745 9.56603 1.64191 9.55048 1.621 9.52965C0.683631 8.61532 0 7.318 0 5.59141C0 2.11928 2.84252 0.0275865 5.54559 0.0275865C6.64758 -0.129185 19.9218 0.429512 24.4671 0.516841C25.0207 0.527363 25.4443 0.531571 25.7022 0.52631C27.2352 0.492641 28.0572 0.386373 28.4472 0.315878C28.475 0.310701 28.5036 0.312095 28.5307 0.319949C28.5578 0.327804 28.5827 0.341902 28.6035 0.361121V0.361121Z" fill="url(#paint0_linear_247_644)"/>
<path id="Vector_8" d="M20.6557 26.4368C19.9807 27.0924 19.2046 27.6342 18.3574 28.0414C17.259 28.5731 16.0634 28.8725 14.8449 28.921C14.8449 28.921 13.033 29.1735 11.3764 28.094C10.325 27.429 9.52468 26.4312 9.10215 25.2584C8.95326 24.888 8.77921 24.3325 8.7876 23.1783C8.83583 22.4123 8.94697 21.2749 9.08957 19.9744C9.57713 15.5385 10.4348 9.20347 10.4359 9.19716C10.4526 8.9962 10.5093 8.32702 10.0437 7.74518C9.73051 7.34429 9.28381 7.07011 8.7855 6.97289C8.7855 6.97289 12.1659 7.00656 11.843 9.69062C11.843 9.69062 11.4372 13.4784 11.0786 16.9C10.8133 19.4252 10.5743 21.7621 10.5439 22.2366C10.4726 23.3529 10.7368 26.5063 13.5971 27.6026C16.4575 28.699 20.6966 26.2453 20.7061 26.2348C20.718 26.2698 20.7196 26.3074 20.7106 26.3433C20.7017 26.3791 20.6826 26.4116 20.6557 26.4368V26.4368Z" fill="url(#paint1_linear_247_644)"/>
<path id="Vector_9" d="M28.6622 0.55997C28.0891 2.37589 26.9697 3.96922 25.4579 5.12109C23.9387 6.27957 22.0805 6.90175 20.1724 6.89082H17.8981C17.8032 6.89038 17.7116 6.92552 17.6412 6.98937C17.5708 7.05321 17.5267 7.14115 17.5175 7.23593C17.4053 8.36174 17.0415 12.0338 16.7269 15.2492C16.5445 17.1105 16.3788 18.8181 16.2897 19.7903C16.0223 22.4923 17.0237 23.6833 17.7188 24.4777C18.4989 25.3762 19.5128 25.8108 20.1891 26.0117C20.3328 26.0549 20.4607 26.0875 20.5677 26.1117C20.6006 26.1191 20.631 26.1352 20.6557 26.1583C20.6804 26.1814 20.6985 26.2107 20.7082 26.2432C20.6987 26.2495 16.4564 28.7053 13.5992 27.611C10.742 26.5168 10.4747 23.3582 10.546 22.245C10.6173 21.1318 11.8482 9.69062 11.8482 9.69062C12.1712 7.00656 8.79074 6.97289 8.79074 6.97289C8.44874 6.92515 8.10423 6.89775 7.759 6.89082H7.56817H7.46332C6.27116 6.88346 5.12094 6.9529 4.01371 7.56105C2.87712 8.20708 2.37698 8.78787 1.91564 9.49702C1.90094 9.51999 1.8814 9.53943 1.85839 9.55398C1.83538 9.56852 1.80946 9.57781 1.78247 9.5812C1.78247 9.5812 1.24459 6.55939 3.14554 4.79387C5.0465 3.02834 8.38811 3.46078 10.7242 3.60492C13.0603 3.74907 18.912 4.03631 19.5946 4.03631C20.2772 4.03631 25.6456 4.18046 28.6014 0.361112C28.6297 0.384687 28.6506 0.416078 28.6614 0.451413C28.6722 0.486749 28.6725 0.524485 28.6622 0.55997V0.55997Z" fill="url(#paint2_linear_247_644)"/>
<path id="Vector_10" d="M54.0488 5.2726L50.0781 21.6337L49.7782 22.8689C49.7782 22.8689 48.7936 27.6952 44.1959 27.6952C39.5982 27.6952 38.664 22.8689 38.664 22.8689L34.4059 5.32205C33.2777 0.677813 29.0868 0.305347 29.0585 0.302191C29.067 0.264408 29.087 0.230219 29.1158 0.204383C29.1445 0.178547 29.1806 0.162349 29.2189 0.158045C29.977 0.0665069 31.6536 -0.0387092 33.2347 0.537875C35.5289 1.31753 38.1418 3.39975 38.9848 6.71406C39.9022 10.2483 41.6449 17.9816 41.7413 18.393C41.8378 18.8044 42.2813 20.692 42.2813 20.692C42.3318 20.89 42.4113 21.0794 42.5172 21.2539C42.7114 21.5254 42.9672 21.7466 43.2635 21.8992C43.5598 22.0519 43.888 22.1315 44.2211 22.1315C44.5541 22.1315 44.8824 22.0519 45.1787 21.8992C45.475 21.7466 45.7308 21.5254 45.9249 21.2539C46.0325 21.0801 46.1134 20.891 46.165 20.6931C46.165 20.6931 46.6096 18.7992 46.705 18.3941C46.7585 18.1679 47.3131 15.7079 47.9538 12.9555C48.1478 12.1243 48.3501 11.2657 48.5462 10.4303C48.8807 9.03092 49.2026 7.7073 49.4616 6.71406C49.88 5.08027 50.7644 3.60447 52.0063 2.46754C52.8661 3.25708 53.5605 4.21067 54.0488 5.2726V5.2726Z" fill="url(#paint3_linear_247_644)"/>
<path id="Vector_11" d="M55.4664 10.4324C54.5406 14.7294 53.2645 20.5605 52.8357 22.1314C52.6364 22.8782 52.3576 23.6013 52.0042 24.2883C51.426 25.4128 50.5902 26.3835 49.5654 27.1207C48.1845 28.1308 46.4198 28.921 44.2179 28.921C42.0161 28.921 40.2514 28.1308 38.8705 27.1207C37.4896 26.1106 36.2954 24.6639 35.6002 22.1314C34.905 19.5988 32.0164 5.97965 31.9304 5.5914C31.586 3.62321 30.5936 1.82785 29.112 0.492632C29.0859 0.469269 29.0668 0.43909 29.0568 0.405463C29.0468 0.371835 29.0463 0.336082 29.0554 0.302191C29.0868 0.302191 33.2777 0.677813 34.4028 5.32205L38.6608 22.8689C38.6608 22.8689 39.5961 27.6952 44.1928 27.6952C48.7895 27.6952 49.7751 22.8689 49.7751 22.8689L50.0749 21.6337L54.0457 5.2726C54.2578 5.73686 54.428 6.21928 54.5542 6.71406C54.8153 7.7073 55.1382 9.03197 55.4664 10.4324Z" fill="url(#paint4_linear_247_644)"/>
<path id="Vector_12" d="M55.4664 10.4324C54.5406 14.7294 53.2645 20.5605 52.8357 22.1314C52.6364 22.8782 52.3576 23.6013 52.0042 24.2883C51.426 25.4128 50.5902 26.3835 49.5654 27.1207C50.2375 25.0774 49.9994 22.9289 49.8883 22.3997C49.8768 22.3502 47.9485 12.9513 47.9485 12.9513C48.1425 12.1201 48.3449 11.2615 48.541 10.4261C48.8754 9.02671 49.1973 7.70309 49.4563 6.70985C49.877 5.07695 50.7632 3.60265 52.0063 2.46754C52.8654 3.25727 53.559 4.21086 54.0467 5.2726C54.2588 5.73686 54.429 6.21928 54.5552 6.71406C54.8153 7.7073 55.1382 9.03197 55.4664 10.4324Z" fill="url(#paint5_linear_247_644)"/>
<path id="Vector_13" d="M74.9058 0.492632C73.4227 1.82722 72.4288 3.62266 72.0832 5.5914C71.9993 5.97965 69.1117 19.5978 68.4134 22.1314C67.7151 24.665 66.5261 26.1107 65.1431 27.1207C63.8325 28.0803 62.1748 28.84 60.1239 28.9147C60.0148 28.9189 59.9047 28.921 59.7936 28.921C57.5917 28.921 55.8271 28.1308 54.4462 27.1207C53.4212 26.3834 52.585 25.4127 52.0063 24.2883C51.6537 23.6011 51.3753 22.878 51.1759 22.1314C50.7481 20.5605 49.472 14.7305 48.5462 10.4303C47.9789 7.79989 47.5428 5.73871 47.5113 5.59035C47.1652 3.62158 46.1709 1.82622 44.6877 0.49158C44.6636 0.469771 44.6455 0.442242 44.6349 0.411534C44.6242 0.380825 44.6215 0.347925 44.6269 0.315869C44.7694 0.328495 48.866 0.723056 49.968 5.26734L54.2512 22.91C54.8478 25.372 56.5411 27.692 59.7957 27.692C59.9079 27.692 60.018 27.692 60.126 27.6836C63.1667 27.5384 64.7394 25.3773 65.3413 22.9142L69.8184 4.4698C69.8184 4.4698 70.7558 0.418981 74.9562 0.293774C74.9676 0.328283 74.9689 0.365347 74.96 0.400585C74.951 0.435824 74.9323 0.467764 74.9058 0.492632V0.492632Z" fill="url(#paint6_linear_247_644)"/>
<path id="Vector_14" d="M74.9614 0.29693C70.7558 0.422137 69.8237 4.47296 69.8237 4.47296L65.3465 22.9173C64.7489 25.3804 63.1698 27.5416 60.1312 27.6868C60.0264 27.692 59.9131 27.6952 59.801 27.6952C56.5506 27.6952 54.853 25.3752 54.2564 22.9131L49.968 5.27049C48.866 0.726212 44.7716 0.331651 44.6269 0.315869C44.6326 0.274679 44.6517 0.236549 44.6813 0.207428C44.7109 0.178307 44.7493 0.159833 44.7904 0.154888C45.5485 0.0633505 47.2261 -0.0429178 48.8073 0.534719C49.9952 0.950412 51.0844 1.60851 52.0063 2.46754C53.2497 3.60396 54.1355 5.0798 54.5552 6.71406C54.8132 7.7073 55.1361 9.02881 55.4685 10.4324C56.322 14.0161 57.2415 18.0963 57.3118 18.3899C57.4072 18.7981 57.8518 20.6889 57.8518 20.6889C57.9022 20.8879 57.9817 21.0783 58.0877 21.2539C58.2827 21.5244 58.5387 21.7447 58.8348 21.8969C59.131 22.049 59.4588 22.1287 59.7915 22.1293C59.9022 22.1274 60.0126 22.1176 60.1218 22.0998C60.3951 22.0584 60.6573 21.9626 60.8932 21.818C61.1291 21.6735 61.3338 21.4831 61.4953 21.2581C61.6029 21.0843 61.6839 20.8952 61.7355 20.6973C61.7355 20.6973 62.18 18.8034 62.2754 18.3983C62.3709 17.9932 64.1135 10.2567 65.032 6.71932C65.8708 3.40501 68.4921 1.32279 70.781 0.543136C72.3663 -0.0387092 74.044 0.0665069 74.802 0.158045C74.8395 0.162348 74.8747 0.177917 74.9032 0.202707C74.9316 0.227496 74.9519 0.260343 74.9614 0.29693V0.29693Z" fill="url(#paint7_linear_247_644)"/>
<path id="Vector_15" d="M90.8191 16.6633L86.3871 16.6244C86.3871 16.6244 83.9807 16.4139 83.6012 18.9791C83.6477 18.7139 83.7735 18.4691 83.9619 18.2773C84.1993 18.0351 84.5219 17.896 84.8604 17.8901C86.2938 17.9048 88.6581 17.929 88.9779 17.929C89.173 17.929 89.6071 17.9553 90.1869 17.9354H90.1963C91.5437 17.8891 93.6962 17.6029 95.6402 16.2182C95.6419 16.2189 95.6437 16.2189 95.6454 16.2182C97.2182 14.942 97.4845 14.4737 98.0895 13.5247C98.5687 12.7882 98.8727 11.8412 99.0049 11.3783C99.0126 11.3513 99.0141 11.3229 99.0094 11.2952C99.0047 11.2675 98.9938 11.2413 98.9776 11.2184C98.9514 11.2752 96.7411 16.3319 90.8191 16.6633Z" fill="url(#paint8_linear_247_644)"/>
<path id="Vector_16" d="M80.8289 27.6952C77.4537 27.0176 77.5607 23.5339 77.8836 21.7684C78.2066 20.0028 79.7521 12.542 80.2952 7.1728C80.8383 1.80362 75.6817 0.377947 75.6503 0.369529C75.6386 0.404509 75.6373 0.442165 75.6466 0.477867C75.6559 0.51357 75.6754 0.545764 75.7027 0.570492L75.7478 0.612578C76.4216 1.25732 76.9833 2.01052 77.4097 2.84105C78.0106 3.99918 78.3543 5.27417 78.4173 6.57833C78.4551 7.5863 78.3555 8.11238 78.2391 8.81101C78.1625 9.33709 75.5748 21.217 75.5748 23.3898C75.5748 25.0206 76.0257 26.4484 77.0322 27.4048C78.0808 28.4077 79.4801 28.9571 80.9285 28.9346C82.5076 28.9346 84.2303 28.5885 85.7936 27.5752C86.3308 27.2419 86.8337 26.856 87.2951 26.4231C87.3198 26.3987 87.3374 26.3679 87.3459 26.3342C87.3544 26.3004 87.3535 26.2649 87.3433 26.2316C87.3433 26.2316 84.203 28.3728 80.8289 27.6952Z" fill="url(#paint9_linear_247_644)"/>
<path id="Vector_17" d="M103.949 0.201184C103.949 0.206444 101.369 5.442 95.4106 5.442L88.2996 5.19053C88.2996 5.19053 85.6783 4.97378 85.2253 7.87143C85.2844 7.57183 85.4412 7.30049 85.6709 7.1002C85.9158 6.89405 86.2269 6.78413 86.5464 6.79086L95.3225 6.98867C97.2476 6.98867 99.1716 6.4205 100.984 5.01797C103.021 3.43973 103.78 1.17654 103.993 0.381103C104.001 0.349817 104.001 0.316928 103.994 0.285479C103.986 0.25403 103.97 0.225037 103.949 0.201184V0.201184Z" fill="url(#paint10_linear_247_644)"/>
<path id="Vector_18" d="M88.2996 5.19053L95.4148 5.442C101.373 5.442 103.95 0.206444 103.953 0.201184C103.932 0.177998 103.905 0.160542 103.875 0.150429C103.846 0.140315 103.814 0.137868 103.783 0.143315C102.852 0.293774 99.6644 0.727264 94.3663 0.582066C90.5067 0.47685 78.4184 0.281148 75.8327 0.240113C75.7923 0.238818 75.7525 0.250738 75.7194 0.274079C75.6864 0.29742 75.6617 0.330918 75.6492 0.369529C75.6807 0.377947 80.8268 1.81835 80.2889 7.1728C79.751 12.5272 78.2066 20.0028 77.8773 21.7684C77.5481 23.5339 77.4474 27.0176 80.8226 27.6952C84.1978 28.3728 87.3412 26.2348 87.3412 26.2327C87.3314 26.1999 87.313 26.1704 87.2879 26.1473C87.2628 26.1242 87.232 26.1082 87.1986 26.1012C85.9897 25.8276 84.8489 25.2458 83.8633 23.9032C82.9196 22.6133 83.3883 20.4227 83.4439 20.0186C83.4523 19.9545 83.4669 19.8566 83.4848 19.7377C83.4848 19.7377 83.5508 19.28 83.5833 19.0612C83.5833 19.0338 83.5907 19.0075 83.5949 18.9801C83.986 16.4139 86.3871 16.6244 86.3871 16.6244L90.8191 16.6622C96.7411 16.3308 98.9514 11.2741 98.9776 11.2142C98.9575 11.1846 98.9296 11.1613 98.897 11.1468C98.8644 11.1323 98.8284 11.1272 98.7931 11.1321C95.3655 11.6077 87.1242 11.2142 85.1729 11.1121C85.1198 11.1091 85.068 11.0951 85.0206 11.071C84.9733 11.0468 84.9314 11.013 84.8978 10.9718C84.8642 10.9305 84.8395 10.8826 84.8253 10.8313C84.8111 10.7799 84.8077 10.7261 84.8153 10.6733L85.175 8.21128L85.2253 7.87038C85.6772 4.97378 88.2996 5.19053 88.2996 5.19053Z" fill="url(#paint11_linear_247_644)"/>
</g>
<defs>
<linearGradient id="paint0_linear_247_644" x1="-6.635" y1="0.331661" x2="35.3977" y2="9.19174" gradientUnits="userSpaceOnUse">
<stop stop-color="#015218"/>
<stop offset="0.36" stop-color="#3BB34B"/>
<stop offset="0.7" stop-color="#83DAA9"/>
<stop offset="1" stop-color="#C4FDFD"/>
</linearGradient>
<linearGradient id="paint1_linear_247_644" x1="4.60402" y1="12.4431" x2="27.3281" y2="31.1099" gradientUnits="userSpaceOnUse">
<stop offset="0.22" stop-color="#015218"/>
<stop offset="0.63" stop-color="#3BB34B"/>
<stop offset="1" stop-color="#C4FDFD"/>
</linearGradient>
<linearGradient id="paint2_linear_247_644" x1="2.3623" y1="7.20542" x2="40.0497" y2="20.7443" gradientUnits="userSpaceOnUse">
<stop stop-color="#015218"/>
<stop offset="0.02" stop-color="#065A1C"/>
<stop offset="0.18" stop-color="#228A35"/>
<stop offset="0.3" stop-color="#34A845"/>
<stop offset="0.37" stop-color="#3BB34B"/>
<stop offset="0.39" stop-color="#44B857"/>
<stop offset="0.51" stop-color="#71D091"/>
<stop offset="0.62" stop-color="#95E4C0"/>
<stop offset="0.71" stop-color="#AFF1E1"/>
<stop offset="0.79" stop-color="#BEFAF6"/>
<stop offset="0.84" stop-color="#C4FDFD"/>
</linearGradient>
<linearGradient id="paint3_linear_247_644" x1="27.0705" y1="7.91352" x2="52.7154" y2="16.8027" gradientUnits="userSpaceOnUse">
<stop stop-color="#1000C2"/>
<stop offset="0.5" stop-color="#4F2E8F"/>
<stop offset="1" stop-color="#91278D"/>
</linearGradient>
<linearGradient id="paint4_linear_247_644" x1="24.724" y1="5.50828" x2="54.8467" y2="20.3323" gradientUnits="userSpaceOnUse">
<stop stop-color="#A4EAFC"/>
<stop offset="0.5" stop-color="#0696EA"/>
<stop offset="1" stop-color="#1900FD"/>
</linearGradient>
<linearGradient id="paint5_linear_247_644" x1="51.7494" y1="14.6568" x2="47.8767" y2="15.2075" gradientUnits="userSpaceOnUse">
<stop/>
<stop offset="1" stop-opacity="0"/>
</linearGradient>
<linearGradient id="paint6_linear_247_644" x1="42.014" y1="2.03405" x2="71.582" y2="17.2299" gradientUnits="userSpaceOnUse">
<stop stop-color="#FD6FB9"/>
<stop offset="0.06" stop-color="#F95B98"/>
<stop offset="0.16" stop-color="#F4416D"/>
<stop offset="0.24" stop-color="#F02C4C"/>
<stop offset="0.33" stop-color="#ED1E34"/>
<stop offset="0.41" stop-color="#EC1526"/>
<stop offset="0.48" stop-color="#EB1221"/>
<stop offset="1" stop-color="#720101"/>
</linearGradient>
<linearGradient id="paint7_linear_247_644" x1="43.1107" y1="-0.605824" x2="79.7626" y2="22.0143" gradientUnits="userSpaceOnUse">
<stop stop-color="#FD6FB9"/>
<stop offset="0.51" stop-color="#EB1221"/>
<stop offset="1" stop-color="#720101"/>
</linearGradient>
<linearGradient id="paint8_linear_247_644" x1="86.6523" y1="11.0679" x2="97.1129" y2="20.0963" gradientUnits="userSpaceOnUse">
<stop stop-color="#600000"/>
<stop offset="0.5" stop-color="#EA1E25"/>
<stop offset="1" stop-color="#F9EC23"/>
</linearGradient>
<linearGradient id="paint9_linear_247_644" x1="61.7155" y1="4.93696" x2="98.4568" y2="27.1475" gradientUnits="userSpaceOnUse">
<stop offset="0.18" stop-color="#600000"/>
<stop offset="0.22" stop-color="#670102"/>
<stop offset="0.29" stop-color="#790507"/>
<stop offset="0.37" stop-color="#970C0F"/>
<stop offset="0.46" stop-color="#C1151A"/>
<stop offset="0.53" stop-color="#EA1E25"/>
<stop offset="1" stop-color="#F9EC23"/>
</linearGradient>
<linearGradient id="paint10_linear_247_644" x1="15764" y1="-117.767" x2="16649.9" y2="1622.32" gradientUnits="userSpaceOnUse">
<stop stop-color="#600000"/>
<stop offset="0.5" stop-color="#EA1E25"/>
<stop offset="1" stop-color="#F9EC23"/>
</linearGradient>
<linearGradient id="paint11_linear_247_644" x1="61.1598" y1="-2.44605" x2="116.516" y2="26.5877" gradientUnits="userSpaceOnUse">
<stop stop-color="#EA1E25"/>
<stop offset="0.09" stop-color="#EA2225"/>
<stop offset="0.19" stop-color="#EB2F25"/>
<stop offset="0.29" stop-color="#ED4325"/>
<stop offset="0.39" stop-color="#EF6124"/>
<stop offset="0.49" stop-color="#F28624"/>
<stop offset="0.59" stop-color="#F5B424"/>
<stop offset="0.69" stop-color="#F9EC23"/>
</linearGradient>
</defs>
</svg>
